<svg version="1.1" id="Layer_1" xmlns="http://www.w3.org/2000/svg" xmlns:xlink="http://www.w3.org/1999/xlink" x="0px" y="0px"
	 width="100%" viewBox="0 0 1563 1563" enable-background="new 0 0 1563 1563" xml:space="preserve">
<path fill="#000000" opacity="1.000000" stroke="none" 
	d="
M864.000000,1564.000000 
	C576.000061,1564.000000 288.500092,1564.000000 1.000116,1564.000000 
	C1.000077,1043.000122 1.000077,522.000305 1.000039,1.000325 
	C521.999756,1.000217 1042.999512,1.000217 1563.999512,1.000108 
	C1563.999634,521.999695 1563.999634,1042.999390 1563.999756,1563.999512 
	C1330.833374,1564.000000 1097.666626,1564.000000 864.000000,1564.000000 
M600.927368,894.687317 
	C601.235474,894.893982 601.543518,895.100647 602.013184,895.964478 
	C602.078918,896.637878 602.144714,897.311218 602.037842,898.654114 
	C602.313110,899.457458 602.588379,900.260803 603.074646,901.690552 
	C603.177795,902.118958 603.280884,902.547302 603.226929,903.552063 
	C603.464966,904.043701 603.703003,904.535339 604.086914,905.674500 
	C604.155762,906.111511 604.224670,906.548523 604.092163,907.893555 
	C604.063171,911.887939 604.034119,915.882385 603.301575,920.073242 
	C603.271545,922.860962 602.816284,925.721558 603.279297,928.424866 
	C606.799255,948.977905 610.498901,969.500122 614.311157,990.981812 
	C617.303467,978.797791 620.092407,967.612854 622.733093,956.393005 
	C622.966003,955.403625 622.441223,954.070374 621.907532,953.094177 
	C619.383667,948.477966 621.104309,944.638306 624.640991,940.903015 
	C625.807556,940.573608 626.974182,940.244202 628.774658,940.210327 
	C634.409302,945.725098 634.441345,946.047852 631.411255,953.212341 
	C630.988037,954.213074 630.846863,955.489319 631.024048,956.563965 
	C633.277588,970.234619 635.613098,983.891785 637.538208,995.252808 
	C641.497803,979.789978 645.941101,962.106689 650.578003,944.474304 
	C652.810730,935.983826 653.558838,927.554138 650.441895,918.433838 
	C650.650940,914.274292 650.729248,910.102783 651.110229,905.959045 
	C651.417236,902.619812 652.089966,899.314148 652.751465,895.363708 
	C652.848999,894.943054 652.946533,894.522400 653.783813,894.060303 
	C657.928772,892.890991 658.314209,889.450073 658.763062,885.329163 
	C658.873596,884.900146 658.984070,884.471069 659.593872,883.709412 
	C659.616821,883.132019 659.639771,882.554626 659.748474,881.110352 
	C659.719482,879.080566 659.690491,877.050781 659.821289,874.382019 
	C659.214600,873.572083 658.607971,872.762146 657.996582,871.125793 
	C657.881287,868.140503 658.499634,864.868042 657.470825,862.240417 
	C656.087097,858.705994 653.671753,855.744629 656.970825,852.005493 
	C657.580322,851.314697 657.488281,849.431519 657.000549,848.459900 
	C655.819824,846.107605 654.488403,843.700256 652.673462,841.848389 
	C651.653442,840.807678 649.506836,840.331909 647.947510,840.474365 
	C644.944214,840.748779 641.997559,841.642883 638.712158,842.347656 
	C638.361328,838.481628 638.100586,835.607910 637.800354,832.299683 
	C640.535461,833.069031 642.254456,833.552551 644.078369,834.205811 
	C644.078369,834.205811 644.344360,834.195923 644.344360,834.195923 
	C644.344360,834.195923 644.043579,833.966675 644.072205,833.283142 
	C645.152954,829.384216 641.824402,829.821289 639.950195,829.507263 
	C629.421692,827.743286 618.750732,820.519409 608.383545,830.005615 
	C608.047974,830.312622 607.458130,830.348022 606.981934,830.494080 
	C601.809509,832.081177 597.877991,835.210754 597.228455,840.727234 
	C595.888550,852.108215 595.036926,863.546692 593.497803,875.585022 
	C593.391846,877.070190 592.970154,878.614685 593.236389,880.029846 
	C594.212891,885.221008 593.902832,891.127563 600.459961,893.922974 
	C600.459961,893.922974 600.853455,894.103882 600.885376,894.047546 
	C600.885376,894.047546 600.893250,894.111755 600.927368,894.687317 
M1072.530396,1090.325195 
	C1072.272217,1090.485474 1072.096680,1090.710449 1071.340454,1091.085815 
	C1070.899170,1091.148071 1070.458008,1091.210449 1069.359741,1091.202637 
	C1068.510742,1091.770386 1067.661743,1092.338135 1066.153320,1093.062744 
	C1060.930054,1096.005859 1059.202881,1100.847046 1058.512939,1106.418579 
	C1061.584106,1106.990845 1064.291626,1107.495483 1067.364014,1108.541138 
	C1071.691162,1109.929565 1075.947144,1111.627808 1080.360229,1112.642578 
	C1089.911255,1114.838623 1103.615112,1105.820190 1105.537476,1096.338623 
	C1105.634033,1095.862427 1105.642334,1095.356201 1105.613403,1094.868530 
	C1105.399536,1091.247925 1105.501221,1087.563965 1104.821289,1084.031372 
	C1104.362183,1081.645386 1103.338501,1078.289551 1101.591675,1077.484253 
	C1099.011963,1076.295044 1095.781372,1074.598511 1092.436523,1077.613525 
	C1088.544922,1081.121460 1083.913818,1083.809937 1079.599609,1086.848022 
	C1078.086060,1087.913818 1076.560425,1088.962402 1074.346802,1090.107056 
	C1073.882568,1090.148926 1073.418335,1090.190918 1072.530396,1090.325195 
M931.600830,964.867615 
	C931.730286,964.251221 931.859802,963.634827 932.360229,962.273560 
	C932.590027,955.952820 932.899170,949.633118 932.978760,943.310486 
	C932.993652,942.125549 932.320923,940.753601 931.571594,939.767029 
	C927.292297,934.132141 927.196655,928.249512 929.828003,921.890625 
	C931.535095,917.765259 932.663635,913.403381 934.152039,909.183044 
	C934.744263,907.503662 935.608032,905.919983 936.924133,904.858032 
	C938.239990,904.607300 939.555908,904.356567 941.209656,904.041443 
	C940.844666,906.154907 940.444946,908.468872 939.951416,911.326294 
	C939.086609,910.218994 938.732300,909.765442 938.313538,909.229309 
	C937.255371,913.305908 936.177551,917.144836 935.266663,921.023010 
	C931.932251,935.219849 936.118774,941.938477 949.980530,944.755981 
	C955.763855,945.931458 958.422119,944.335083 960.077332,938.711060 
	C957.967834,939.014526 955.848694,939.319336 953.729553,939.624207 
	C953.652222,939.181763 953.574951,938.739319 953.497620,938.296875 
	C954.632263,937.661255 955.766907,937.025635 956.394287,936.674133 
	C954.220154,932.717957 951.922546,928.990417 950.086609,925.047852 
	C948.702454,922.075439 947.935120,919.063721 950.438232,915.803345 
	C951.184631,914.831177 949.555054,911.950134 948.871948,909.993347 
	C948.369873,908.555359 947.016907,907.149963 947.121094,905.814087 
	C947.438660,901.742981 949.063721,897.652649 948.760071,893.678223 
	C947.995056,883.666321 946.621704,873.688171 945.118103,863.753052 
	C944.664429,860.755127 943.008057,857.933228 941.861206,855.047180 
	C937.603943,844.332886 931.266541,836.078186 918.371094,836.487732 
	C915.732178,836.571533 912.932068,837.791504 910.678162,839.228088 
	C910.144592,839.568115 911.516907,842.898315 911.957764,844.637268 
	C914.392700,844.442383 916.249146,844.293762 919.500610,844.033569 
	C917.207031,846.001160 916.056396,846.988220 914.457397,848.359924 
	C917.292175,848.925903 919.535889,849.373901 921.779602,849.821838 
	C921.732666,850.148132 921.685730,850.474426 921.638794,850.800720 
	C919.287537,850.940674 916.936340,851.080627 914.585083,851.220581 
	C914.582458,851.377014 914.579895,851.533386 914.577271,851.689819 
	C916.136658,851.941101 917.696045,852.192383 918.935120,852.392029 
	C919.097168,854.060913 919.126343,855.397888 919.380737,856.690491 
	C919.636902,857.991882 920.117004,859.249207 920.498901,860.525818 
	C919.156555,860.686462 917.817078,860.932739 916.470947,860.976990 
	C915.602783,861.005554 914.724792,860.737732 913.345825,860.524719 
	C914.306152,861.724426 914.859314,862.415405 915.823181,863.619507 
	C911.047852,863.525024 907.762573,862.985107 907.749329,857.541443 
	C907.740723,854.035034 906.897034,850.530701 906.427734,847.025391 
	C905.406494,848.880920 905.327393,850.712769 905.427734,852.534790 
	C905.536987,854.518127 905.976685,856.491699 905.983582,858.470520 
	C906.000549,863.388733 904.064087,865.124817 896.805786,865.327515 
	C893.022888,865.433167 893.192810,862.414673 894.044861,859.570801 
	C894.155334,859.202148 893.382874,858.638489 893.215881,858.103821 
	C892.771790,856.681763 891.967651,855.164062 892.149414,853.796387 
	C892.576172,850.585510 893.494873,847.440002 894.214417,844.268066 
	C877.655701,856.060852 875.200073,873.272339 874.204224,890.998291 
	C874.100647,892.841370 875.648926,894.733215 875.753662,896.639587 
	C876.215210,905.045227 876.292419,913.472473 876.781616,921.875977 
	C877.089539,927.165771 874.751160,929.733704 869.989624,928.969177 
	C869.348267,932.853088 868.707825,936.731018 868.088562,940.480957 
	C866.581482,940.480957 865.200745,940.480957 863.820007,940.480957 
	C863.803711,940.837036 863.787476,941.193054 863.771179,941.549133 
	C865.419739,941.827881 867.068359,942.106567 869.257141,942.476624 
	C867.709717,943.520813 866.712402,944.193787 865.362793,945.104553 
	C873.480469,946.149170 886.612915,939.903748 888.505493,934.443787 
	C890.065002,929.944580 886.622803,919.842651 882.035645,916.654663 
	C882.339233,919.938293 882.604492,922.807312 882.869751,925.676392 
	C879.054810,920.520630 879.697083,914.698914 880.308289,909.053284 
	C880.681213,905.608643 882.115662,902.278931 883.642151,899.325073 
	C884.777222,901.429565 886.257751,903.422485 886.980652,905.660217 
	C888.910339,911.632446 890.798401,917.648193 892.129150,923.771362 
	C892.804382,926.878357 893.291626,930.748413 892.037415,933.414062 
	C888.573364,940.776367 888.896851,948.185364 889.822205,956.715454 
	C890.158386,959.241699 890.186523,961.861938 890.920715,964.266663 
	C891.604187,966.505188 893.469299,968.397827 894.077454,970.642334 
	C900.404663,993.994995 906.577393,1017.389343 912.819946,1040.765015 
	C913.117432,1041.879028 913.667725,1042.925781 914.323730,1044.560547 
	C916.897705,1031.043579 919.114441,1018.308044 921.786377,1005.668762 
	C924.663818,992.057678 927.967651,978.536804 930.986389,964.990295 
	C930.986389,964.990295 930.998779,965.089539 931.600830,964.867615 
M304.098511,1121.089233 
	C304.098511,1121.089233 304.256622,1121.242920 304.321838,1121.816040 
	C304.861786,1122.521484 305.401703,1123.226807 306.098938,1124.089722 
	C306.098938,1124.089722 306.258514,1124.244995 306.317200,1124.850830 
	C307.192413,1125.878296 308.067596,1126.905640 309.098511,1128.089233 
	C309.098511,1128.089233 309.256622,1128.242920 309.316742,1128.849243 
	C310.192444,1129.877441 311.068115,1130.905640 312.098114,1132.088867 
	C312.098114,1132.088867 312.254944,1132.241333 312.316315,1132.842896 
	C318.163879,1139.694214 324.017975,1146.539917 329.857422,1153.398071 
	C337.584503,1162.473145 344.775818,1172.077271 353.137939,1180.522705 
	C367.397430,1194.924561 381.826630,1209.260132 397.223114,1222.407349 
	C414.439514,1237.108521 432.320343,1251.149170 450.788086,1264.241577 
	C484.581726,1288.198730 520.942993,1307.837280 559.485779,1322.971558 
	C583.033325,1332.217773 607.012817,1340.774536 631.425598,1347.290894 
	C655.636536,1353.753296 680.544250,1357.817871 705.319031,1361.881226 
	C721.601990,1364.552124 738.166870,1366.390625 754.648193,1366.775879 
	C786.512695,1367.520996 818.474854,1368.064331 850.117676,1362.988037 
	C873.287292,1359.270874 896.389709,1355.114502 919.468201,1350.861084 
	C927.720520,1349.340210 929.661560,1346.548462 930.593201,1337.199219 
	C929.257507,1337.332031 928.008057,1337.348022 926.804871,1337.592041 
	C907.831848,1341.440674 888.985718,1346.132446 869.864319,1348.973999 
	C848.296997,1352.179077 826.528992,1354.804688 804.765198,1355.731201 
	C774.750061,1357.008789 744.628784,1356.540894 714.813843,1351.961426 
	C693.915222,1348.751587 673.002991,1345.412598 652.320129,1341.068237 
	C624.392090,1335.202026 597.201294,1326.554810 570.800110,1315.711670 
	C554.410278,1308.980347 538.038940,1302.020630 522.321045,1293.884888 
	C504.537415,1284.679932 487.120483,1274.630737 470.233551,1263.866943 
	C453.025421,1252.898193 435.616547,1242.013916 421.236481,1227.142700 
	C418.313629,1224.120117 414.595398,1221.866699 411.089325,1219.099121 
	C411.089325,1219.099121 410.931885,1218.942383 410.714020,1218.420044 
	C405.348724,1214.022583 399.795349,1209.831543 394.673157,1205.167114 
	C389.934357,1200.851929 385.774170,1195.907837 381.142120,1191.467163 
	C376.914948,1187.414673 372.076080,1183.966064 368.087738,1179.707153 
	C363.046082,1174.323608 358.675873,1168.317749 353.862305,1162.712280 
	C349.025024,1157.079102 343.999115,1151.607666 338.902344,1145.911255 
	C338.902344,1145.911255 338.746460,1145.759521 338.687958,1145.205322 
	C335.811432,1141.826172 332.934906,1138.446899 329.901093,1134.910278 
	C329.901093,1134.910278 329.741486,1134.755249 329.682709,1134.149170 
	C328.807190,1133.121338 327.931702,1132.093384 326.902161,1130.911255 
	C326.902161,1130.911255 326.745728,1130.759399 326.690521,1130.151245 
	C325.812439,1129.122925 324.934326,1128.094727 323.901886,1126.911133 
	C323.901886,1126.911133 323.744843,1126.758545 323.688538,1126.150757 
	C322.810791,1125.122192 321.933075,1124.093750 320.902588,1122.911499 
	C320.902588,1122.911499 320.747223,1122.760620 320.687592,1122.152954 
	C319.810120,1121.123657 318.932678,1120.094360 317.902740,1118.911743 
	C317.902740,1118.911743 317.747498,1118.760986 317.684204,1118.187134 
	C314.141907,1113.147217 310.599579,1108.107178 306.901520,1102.910522 
	C306.901520,1102.910522 306.743164,1102.756348 306.678711,1102.182983 
	C306.138428,1101.477783 305.598145,1100.772705 304.900940,1099.909912 
	C304.900940,1099.909912 304.741547,1099.754761 304.676270,1099.162354 
	C303.864288,1098.526123 303.052307,1097.889771 302.088715,1097.098022 
	C302.088715,1097.098022 301.934326,1096.945190 301.737427,1096.354858 
	C299.571808,1092.987793 297.406189,1089.620728 295.088837,1086.098022 
	C295.088837,1086.098022 294.934387,1085.945312 294.698212,1085.469116 
	C293.873260,1084.057861 293.048279,1082.646606 292.084351,1081.092529 
	C292.084351,1081.092529 291.942474,1080.952515 291.759796,1080.380615 
	C290.913940,1078.998413 290.068115,1077.616333 289.084076,1076.092041 
	C289.084076,1076.092041 288.942963,1075.952881 288.757477,1075.381958 
	C287.919647,1074.007202 287.081818,1072.632568 286.089691,1071.098999 
	C286.089691,1071.098999 285.932587,1070.942993 285.694824,1070.468506 
	C284.877106,1069.063965 284.059357,1067.659546 283.088989,1066.098389 
	C283.088989,1066.098389 282.933380,1065.944824 282.707764,1065.481201 
	C281.952759,1063.199341 281.311188,1060.869019 280.372772,1058.665283 
	C280.095612,1058.014282 278.980408,1057.720093 278.090759,1057.100464 
	C278.090759,1057.100464 277.929504,1056.941162 277.700806,1056.480103 
	C277.302917,1056.005371 276.779480,1055.589600 276.525391,1055.047607 
	C269.344482,1039.728027 262.003174,1024.479492 255.097031,1009.036560 
	C250.324417,998.364319 245.578812,987.615784 241.857529,976.552612 
	C236.196732,959.723755 231.358109,942.615051 226.366043,925.567871 
	C225.551468,922.786255 224.892105,920.683899 221.538467,922.024292 
	C218.588760,923.203186 213.867355,922.865479 215.268570,928.332214 
	C216.379074,932.664734 217.671417,936.950806 218.885223,941.256836 
	C227.851181,973.063843 239.428040,1003.883972 253.362228,1033.855713 
	C265.850800,1060.718018 281.762177,1085.610840 297.098602,1111.089355 
	C297.098602,1111.089355 297.257477,1111.243286 297.317047,1111.818115 
	C297.858612,1112.522827 298.400146,1113.227417 299.098969,1114.089966 
	C299.098969,1114.089966 299.258606,1114.245361 299.316589,1114.822021 
	C299.860535,1115.527710 300.404480,1116.233276 301.095093,1117.086426 
	C301.095093,1117.086426 301.244415,1117.231201 301.313293,1117.838135 
	C302.189789,1118.869751 303.066284,1119.901489 304.098511,1121.089233 
M1111.088257,296.097626 
	C1111.088257,296.097626 1110.934692,295.945068 1110.701416,295.410278 
	C1105.697388,292.655731 1100.640137,289.993103 1095.699707,287.128845 
	C1082.654419,279.565857 1070.070801,271.071106 1056.552490,264.489868 
	C1034.043701,253.531769 1011.312256,242.840851 987.992676,233.795303 
	C967.039368,225.667694 945.472656,218.625992 923.622803,213.436508 
	C898.893494,207.563080 873.630005,203.712036 848.439819,200.085922 
	C831.928467,197.709137 815.145935,196.426041 798.465271,196.216171 
	C777.898071,195.957382 757.289307,196.950043 736.739014,198.115204 
	C722.890137,198.900406 709.022156,200.358353 695.324219,202.532837 
	C679.158997,205.098984 663.178955,208.819473 647.096985,211.927612 
	C638.117554,213.663071 636.078247,215.832947 634.990845,225.655060 
	C635.461670,225.737656 635.974548,225.981140 636.409058,225.881836 
	C661.218262,220.211655 685.945007,214.084274 711.388733,211.827728 
	C730.335938,210.147369 749.269714,207.998871 768.257507,207.194717 
	C783.173828,206.562988 798.170227,207.495056 813.118591,208.061554 
	C823.210022,208.444000 833.347290,208.888397 843.343994,210.211975 
	C860.050232,212.423904 876.721436,215.027649 893.298157,218.063202 
	C926.621643,224.165497 959.206787,233.237457 990.392822,246.415726 
	C1014.349792,256.539215 1037.770142,268.016663 1061.019165,279.707306 
	C1083.871460,291.198456 1105.044800,305.555969 1125.415894,320.994904 
	C1137.418213,330.091217 1149.061646,339.673126 1160.655518,349.290741 
	C1166.141968,353.841888 1171.583130,358.604919 1176.196899,363.997375 
	C1179.452148,367.802185 1182.631714,371.266327 1187.012085,373.776123 
	C1188.915405,374.866669 1190.287598,377.005188 1191.682129,378.834595 
	C1193.892090,381.733917 1195.609985,385.070251 1198.111816,387.667145 
	C1200.438599,390.082275 1204.566650,391.211517 1206.013672,393.916779 
	C1208.061646,397.745056 1211.437256,399.796356 1214.190308,402.631958 
	C1218.560303,407.133270 1220.768799,413.214172 1225.922852,417.272797 
	C1229.451782,420.051544 1231.896240,424.282135 1234.564819,428.048401 
	C1235.994507,430.066040 1236.324829,433.220123 1238.121826,434.540955 
	C1241.250366,436.840668 1243.051636,439.590454 1244.164307,443.126892 
	C1244.434692,443.986450 1245.416748,444.619202 1246.062500,445.364075 
	C1249.217407,449.003235 1252.706299,452.413269 1255.417358,456.357788 
	C1257.666138,459.629974 1258.746216,463.686737 1260.835327,467.094879 
	C1261.968872,468.944305 1264.593018,469.871948 1265.754395,471.713776 
	C1279.913818,494.169800 1292.960938,517.219299 1303.802734,541.514099 
	C1316.225708,569.352783 1327.435303,597.596924 1335.192139,627.132019 
	C1336.737305,633.015686 1338.525757,638.835449 1340.274048,644.936157 
	C1342.666748,644.189941 1344.515137,643.449402 1346.434570,643.049255 
	C1350.302979,642.242615 1350.638550,639.353088 1349.853638,636.540649 
	C1346.918823,626.023499 1344.230713,615.387878 1340.450562,605.166260 
	C1332.114136,582.624268 1323.570923,560.139832 1314.319214,537.962708 
	C1309.089355,525.426758 1302.541992,513.410583 1296.121826,501.409729 
	C1289.937256,489.849457 1283.983032,478.145416 1276.294678,467.420868 
	C1270.017578,458.664886 1265.303345,448.838470 1258.225464,440.596344 
	C1257.689941,439.972900 1257.928833,438.743469 1257.559814,437.904877 
	C1256.975830,436.577789 1256.383179,435.165375 1255.441895,434.100250 
	C1251.342407,429.460693 1247.000488,425.030792 1243.007324,420.304565 
	C1241.855103,418.940735 1241.850586,416.658600 1240.834229,415.117981 
	C1238.611328,411.748932 1232.889893,411.277252 1233.075073,405.787170 
	C1233.092651,405.265472 1232.412476,404.645813 1231.939331,404.193970 
	C1228.704712,401.104858 1225.352295,398.134155 1222.210449,394.954620 
	C1219.647949,392.361237 1217.232422,389.606720 1214.923462,386.783173 
	C1212.795776,384.181244 1211.214844,381.064636 1208.833008,378.751740 
	C1203.375610,373.452606 1197.421509,368.664581 1191.973511,363.356598 
	C1188.654175,360.122559 1186.239258,355.932098 1182.812012,352.843872 
	C1177.977051,348.487213 1172.373413,344.989471 1167.481567,340.688660 
	C1162.253906,336.092468 1157.712036,330.707214 1152.416138,326.200592 
	C1148.415405,322.796021 1143.638428,320.318481 1139.315308,317.274475 
	C1132.185059,312.254059 1125.108276,307.155853 1118.081665,301.991486 
	C1115.687866,300.232117 1113.513550,298.174255 1111.088257,296.097626 
M748.683044,1105.959717 
	C756.653870,1109.652466 765.182861,1112.149414 771.785400,1118.591919 
	C774.387024,1121.130615 782.036194,1119.802246 784.226746,1117.485962 
	C788.684570,1112.771973 793.145142,1108.060547 797.996216,1102.934204 
	C796.697876,1098.992188 795.461670,1097.211914 790.857361,1096.454956 
	C781.862671,1094.976074 774.682373,1090.034790 767.446106,1085.125977 
	C761.777893,1081.281006 761.834595,1081.197388 758.908936,1087.105591 
	C758.596252,1087.059570 758.176514,1087.128296 757.986328,1086.950928 
	C752.181335,1081.537476 745.939026,1083.140137 739.820557,1086.051392 
	C735.221191,1088.239868 734.946228,1095.057983 738.972717,1098.036987 
	C742.133179,1100.375244 745.091187,1102.986816 748.683044,1105.959717 
M479.453674,1113.702393 
	C483.927338,1110.053955 487.931091,1105.380981 493.009705,1103.051514 
	C497.872131,1100.821289 497.834808,1097.271729 496.721191,1094.307495 
	C495.763336,1091.757935 492.100647,1088.344727 489.863251,1088.505371 
	C482.917542,1089.004150 477.255432,1086.518066 472.130920,1082.766357 
	C466.556335,1078.685181 461.235504,1075.510376 452.975494,1080.519531 
	C452.975494,1085.448608 452.734131,1091.542480 453.114105,1097.597290 
	C453.237427,1099.561890 454.683502,1101.689209 456.063232,1103.272827 
	C458.211609,1105.738647 460.999359,1107.642700 463.187103,1110.080200 
	C465.746033,1112.931152 475.489716,1115.697266 479.453674,1113.702393 
z"/>
<path fill="#3D3B3A" opacity="1.000000" stroke="none" 
	d="
M1111.239014,296.252747 
	C1113.513550,298.174255 1115.687866,300.232117 1118.081665,301.991486 
	C1125.108276,307.155853 1132.185059,312.254059 1139.315308,317.274475 
	C1143.638428,320.318481 1148.415405,322.796021 1152.416138,326.200592 
	C1157.712036,330.707214 1162.253906,336.092468 1167.481567,340.688660 
	C1172.373413,344.989471 1177.977051,348.487213 1182.812012,352.843872 
	C1186.239258,355.932098 1188.654175,360.122559 1191.973511,363.356598 
	C1197.421509,368.664581 1203.375610,373.452606 1208.833008,378.751740 
	C1211.214844,381.064636 1212.795776,384.181244 1214.923462,386.783173 
	C1217.232422,389.606720 1219.647949,392.361237 1222.210449,394.954620 
	C1225.352295,398.134155 1228.704712,401.104858 1231.939331,404.193970 
	C1232.412476,404.645813 1233.092651,405.265472 1233.075073,405.787170 
	C1232.889893,411.277252 1238.611328,411.748932 1240.834229,415.117981 
	C1241.850586,416.658600 1241.855103,418.940735 1243.007324,420.304565 
	C1247.000488,425.030792 1251.342407,429.460693 1255.441895,434.100250 
	C1256.383179,435.165375 1256.975830,436.577789 1257.559814,437.904877 
	C1257.928833,438.743469 1257.689941,439.972900 1258.225464,440.596344 
	C1265.303345,448.838470 1270.017578,458.664886 1276.294678,467.420868 
	C1283.983032,478.145416 1289.937256,489.849457 1296.121826,501.409729 
	C1302.541992,513.410583 1309.089355,525.426758 1314.319214,537.962708 
	C1323.570923,560.139832 1332.114136,582.624268 1340.450562,605.166260 
	C1344.230713,615.387878 1346.918823,626.023499 1349.853638,636.540649 
	C1350.638550,639.353088 1350.302979,642.242615 1346.434570,643.049255 
	C1344.515137,643.449402 1342.666748,644.189941 1340.274048,644.936157 
	C1338.525757,638.835449 1336.737305,633.015686 1335.192139,627.132019 
	C1327.435303,597.596924 1316.225708,569.352783 1303.802734,541.514099 
	C1292.960938,517.219299 1279.913818,494.169800 1265.754395,471.713776 
	C1264.593018,469.871948 1261.968872,468.944305 1260.835327,467.094879 
	C1258.746216,463.686737 1257.666138,459.629974 1255.417358,456.357788 
	C1252.706299,452.413269 1249.217407,449.003235 1246.062500,445.364075 
	C1245.416748,444.619202 1244.434692,443.986450 1244.164307,443.126892 
	C1243.051636,439.590454 1241.250366,436.840668 1238.121826,434.540955 
	C1236.324829,433.220123 1235.994507,430.066040 1234.564819,428.048401 
	C1231.896240,424.282135 1229.451782,420.051544 1225.922852,417.272797 
	C1220.768799,413.214172 1218.560303,407.133270 1214.190308,402.631958 
	C1211.437256,399.796356 1208.061646,397.745056 1206.013672,393.916779 
	C1204.566650,391.211517 1200.438599,390.082275 1198.111816,387.667145 
	C1195.609985,385.070251 1193.892090,381.733917 1191.682129,378.834595 
	C1190.287598,377.005188 1188.915405,374.866669 1187.012085,373.776123 
	C1182.631714,371.266327 1179.452148,367.802185 1176.196899,363.997375 
	C1171.583130,358.604919 1166.141968,353.841888 1160.655518,349.290741 
	C1149.061646,339.673126 1137.418213,330.091217 1125.415894,320.994904 
	C1105.044800,305.555969 1083.871460,291.198456 1061.019165,279.707306 
	C1037.770142,268.016663 1014.349792,256.539215 990.392822,246.415726 
	C959.206787,233.237457 926.621643,224.165497 893.298157,218.063202 
	C876.721436,215.027649 860.050232,212.423904 843.343994,210.211975 
	C833.347290,208.888397 823.210022,208.444000 813.118591,208.061554 
	C798.170227,207.495056 783.173828,206.562988 768.257507,207.194717 
	C749.269714,207.998871 730.335938,210.147369 711.388733,211.827728 
	C685.945007,214.084274 661.218262,220.211655 636.409058,225.881836 
	C635.974548,225.981140 635.461670,225.737656 634.990845,225.655060 
	C636.078247,215.832947 638.117554,213.663071 647.096985,211.927612 
	C663.178955,208.819473 679.158997,205.098984 695.324219,202.532837 
	C709.022156,200.358353 722.890137,198.900406 736.739014,198.115204 
	C757.289307,196.950043 777.898071,195.957382 798.465271,196.216171 
	C815.145935,196.426041 831.928467,197.709137 848.439819,200.085922 
	C873.630005,203.712036 898.893494,207.563080 923.622803,213.436508 
	C945.472656,218.625992 967.039368,225.667694 987.992676,233.795303 
	C1011.312256,242.840851 1034.043701,253.531769 1056.552490,264.489868 
	C1070.070801,271.071106 1082.654419,279.565857 1095.699707,287.128845 
	C1100.640137,289.993103 1105.697388,292.655731 1110.689453,295.758911 
	C1110.864746,296.155945 1111.051880,296.204346 1111.239014,296.252747 
z"/>
<path fill="#3D3B3A" opacity="1.000000" stroke="none" 
	d="
M411.243835,1219.258789 
	C414.595398,1221.866699 418.313629,1224.120117 421.236481,1227.142700 
	C435.616547,1242.013916 453.025421,1252.898193 470.233551,1263.866943 
	C487.120483,1274.630737 504.537415,1284.679932 522.321045,1293.884888 
	C538.038940,1302.020630 554.410278,1308.980347 570.800110,1315.711670 
	C597.201294,1326.554810 624.392090,1335.202026 652.320129,1341.068237 
	C673.002991,1345.412598 693.915222,1348.751587 714.813843,1351.961426 
	C744.628784,1356.540894 774.750061,1357.008789 804.765198,1355.731201 
	C826.528992,1354.804688 848.296997,1352.179077 869.864319,1348.973999 
	C888.985718,1346.132446 907.831848,1341.440674 926.804871,1337.592041 
	C928.008057,1337.348022 929.257507,1337.332031 930.593201,1337.199219 
	C929.661560,1346.548462 927.720520,1349.340210 919.468201,1350.861084 
	C896.389709,1355.114502 873.287292,1359.270874 850.117676,1362.988037 
	C818.474854,1368.064331 786.512695,1367.520996 754.648193,1366.775879 
	C738.166870,1366.390625 721.601990,1364.552124 705.319031,1361.881226 
	C680.544250,1357.817871 655.636536,1353.753296 631.425598,1347.290894 
	C607.012817,1340.774536 583.033325,1332.217773 559.485779,1322.971558 
	C520.942993,1307.837280 484.581726,1288.198730 450.788086,1264.241577 
	C432.320343,1251.149170 414.439514,1237.108521 397.223114,1222.407349 
	C381.826630,1209.260132 367.397430,1194.924561 353.137939,1180.522705 
	C344.775818,1172.077271 337.584503,1162.473145 329.857422,1153.398071 
	C324.017975,1146.539917 318.163879,1139.694214 312.403809,1132.440186 
	C312.308777,1132.002930 312.126312,1131.968384 311.943817,1131.933838 
	C311.068115,1130.905640 310.192444,1129.877441 309.404633,1128.443359 
	C309.309296,1128.002686 309.126068,1127.967896 308.942810,1127.933105 
	C308.067596,1126.905640 307.192413,1125.878296 306.405579,1124.444580 
	C306.309845,1124.002930 306.125732,1123.967651 305.941650,1123.932251 
	C305.401703,1123.226807 304.861786,1122.521484 304.407227,1121.426880 
	C304.309357,1121.002930 304.126068,1120.968018 303.942810,1120.933105 
	C303.066284,1119.901489 302.189789,1118.869751 301.398224,1117.436523 
	C301.304901,1117.002808 301.126678,1116.970947 300.948425,1116.938965 
	C300.404480,1116.233276 299.860535,1115.527710 299.405334,1114.430176 
	C299.309937,1114.002930 299.125824,1113.967529 298.941711,1113.932129 
	C298.400146,1113.227417 297.858612,1112.522827 297.405090,1111.427979 
	C297.309601,1111.002808 297.126038,1110.967773 296.942474,1110.932861 
	C281.762177,1085.610840 265.850800,1060.718018 253.362228,1033.855713 
	C239.428040,1003.883972 227.851181,973.063843 218.885223,941.256836 
	C217.671417,936.950806 216.379074,932.664734 215.268570,928.332214 
	C213.867355,922.865479 218.588760,923.203186 221.538467,922.024292 
	C224.892105,920.683899 225.551468,922.786255 226.366043,925.567871 
	C231.358109,942.615051 236.196732,959.723755 241.857529,976.552612 
	C245.578812,987.615784 250.324417,998.364319 255.097031,1009.036560 
	C262.003174,1024.479492 269.344482,1039.728027 276.525391,1055.047607 
	C276.779480,1055.589600 277.302917,1056.005371 277.686646,1056.793945 
	C277.864746,1057.159302 278.056976,1057.210815 278.249207,1057.262329 
	C278.980408,1057.720093 280.095612,1058.014282 280.372772,1058.665283 
	C281.311188,1060.869019 281.952759,1063.199341 282.692139,1065.795166 
	C282.864868,1066.157837 283.053253,1066.206421 283.241638,1066.255005 
	C284.059357,1067.659546 284.877106,1069.063965 285.685242,1070.788330 
	C285.865082,1071.158081 286.054565,1071.208008 286.244019,1071.257812 
	C287.081818,1072.632568 287.919647,1074.007202 288.721802,1075.746948 
	C288.864838,1076.152710 289.043549,1076.193359 289.222290,1076.234131 
	C290.068115,1077.616333 290.913940,1078.998413 291.722717,1080.746094 
	C291.864868,1081.152832 292.044098,1081.194092 292.223297,1081.235352 
	C293.048279,1082.646606 293.873260,1084.057861 294.687622,1085.789551 
	C294.864868,1086.157959 295.052734,1086.205811 295.240601,1086.253540 
	C297.406189,1089.620728 299.571808,1092.987793 301.707397,1096.732178 
	C301.865021,1097.157349 302.052673,1097.205444 302.240326,1097.253540 
	C303.052307,1097.889771 303.864288,1098.526123 304.588623,1099.561279 
	C304.686615,1099.996094 304.872253,1100.031738 305.057892,1100.067505 
	C305.598145,1100.772705 306.138428,1101.477783 306.592957,1102.572388 
	C306.690582,1102.996948 306.873932,1103.032104 307.057281,1103.067261 
	C310.599579,1108.107178 314.141907,1113.147217 317.597626,1118.575195 
	C317.692444,1118.997192 317.873840,1119.031128 318.055206,1119.065063 
	C318.932678,1120.094360 319.810120,1121.123657 320.599304,1122.558105 
	C320.692444,1122.997192 320.873901,1123.031250 321.055359,1123.065186 
	C321.933075,1124.093750 322.810791,1125.122192 323.598755,1126.556763 
	C323.691406,1126.997314 323.873810,1127.031860 324.056244,1127.066406 
	C324.934326,1128.094727 325.812439,1129.122925 326.600098,1130.557129 
	C326.691833,1130.997070 326.874023,1131.031250 327.056183,1131.065552 
	C327.931702,1132.093384 328.807190,1133.121338 329.594727,1134.555542 
	C329.690643,1134.997192 329.874512,1135.032471 330.058350,1135.067749 
	C332.934906,1138.446899 335.811432,1141.826172 338.599243,1145.583984 
	C338.692261,1145.997070 338.874023,1146.031250 339.055847,1146.065430 
	C343.999115,1151.607666 349.025024,1157.079102 353.862305,1162.712280 
	C358.675873,1168.317749 363.046082,1174.323608 368.087738,1179.707153 
	C372.076080,1183.966064 376.914948,1187.414673 381.142120,1191.467163 
	C385.774170,1195.907837 389.934357,1200.851929 394.673157,1205.167114 
	C399.795349,1209.831543 405.348724,1214.022583 410.694519,1218.763184 
	C410.864624,1219.156982 411.054230,1219.207886 411.243835,1219.258789 
M296.427490,1089.475830 
	C296.427490,1089.475830 296.630524,1089.587158 296.630524,1089.587158 
	C296.630524,1089.587158 296.600220,1089.379272 296.427490,1089.475830 
M298.724792,1092.518677 
	C298.724792,1092.518677 298.511871,1092.423706 298.511871,1092.423706 
	C298.511871,1092.423706 298.559387,1092.628418 298.724792,1092.518677 
z"/>
<path fill="#3D3B3A" opacity="1.000000" stroke="none" 
	d="
M936.348145,904.292786 
	C935.608032,905.919983 934.744263,907.503662 934.152039,909.183044 
	C932.663635,913.403381 931.535095,917.765259 929.828003,921.890625 
	C927.196655,928.249512 927.292297,934.132141 931.571594,939.767029 
	C932.320923,940.753601 932.993652,942.125549 932.978760,943.310486 
	C932.899170,949.633118 932.590027,955.952820 931.901184,962.791260 
	C931.294373,963.902466 931.146606,964.495972 930.998779,965.089539 
	C930.998779,965.089539 930.986389,964.990295 930.703247,965.089905 
	C925.194641,977.796387 919.969177,990.403320 915.038940,1002.298035 
	C913.624939,997.326538 912.139709,991.207397 910.139404,985.261536 
	C906.202026,973.558350 899.685486,963.532043 889.895081,955.804199 
	C888.896851,948.185364 888.573364,940.776367 892.037415,933.414062 
	C893.291626,930.748413 892.804382,926.878357 892.129150,923.771362 
	C890.798401,917.648193 888.910339,911.632446 886.980652,905.660217 
	C886.257751,903.422485 884.777222,901.429565 883.200806,898.770203 
	C881.972168,894.650513 881.184875,891.085632 880.397583,887.520813 
	C880.804810,887.401245 881.211975,887.281738 881.619141,887.162170 
	C882.509033,888.138489 883.398865,889.114868 884.482178,890.303406 
	C885.737183,880.229492 891.442017,873.515320 898.636719,867.929688 
	C902.636353,864.824524 907.420105,864.177734 912.357727,865.556458 
	C924.875061,869.051575 933.018188,877.427002 938.681458,888.910706 
	C939.159180,888.772766 939.951172,888.544006 942.195312,887.895996 
	C940.164062,892.863831 938.578552,896.741638 936.748657,900.846680 
	C936.298645,901.464661 936.092957,901.855469 935.855835,902.474243 
	C935.999023,903.232422 936.173584,903.762634 936.348145,904.292786 
M913.349426,916.987793 
	C910.243896,916.987793 907.138367,916.987793 902.869324,916.987793 
	C910.103943,923.606750 917.160278,923.261414 919.784058,916.987793 
	C917.842590,916.987793 916.043640,916.987793 913.349426,916.987793 
M895.619934,884.021790 
	C895.303894,884.095886 894.983398,884.156555 894.676758,884.258789 
	C894.630493,884.274170 894.612122,884.578491 894.643066,884.590637 
	C898.639343,886.158630 902.641479,887.711731 906.643311,889.265503 
	C906.888245,888.558350 907.133118,887.851196 907.378052,887.144043 
	C903.677551,886.098206 899.976990,885.052368 895.619934,884.021790 
M931.548218,884.391907 
	C926.902588,883.512146 923.081726,885.090088 919.526611,887.459595 
	C919.688782,887.949768 919.850952,888.440002 920.013123,888.930176 
	C923.776917,887.585022 927.540710,886.239868 931.548218,884.391907 
M925.586792,893.977051 
	C923.945312,893.530396 922.303833,893.083679 920.662292,892.636963 
	C920.552551,893.141541 920.442810,893.646057 920.333069,894.150635 
	C922.759705,896.403015 925.625916,896.538025 930.233704,894.607666 
	C928.069824,894.271790 927.191772,894.135498 925.586792,893.977051 
M931.426331,893.479858 
	C931.426331,893.479858 931.494385,893.445496 931.426331,893.479858 
z"/>
<path fill="#3D3B3A" opacity="1.000000" stroke="none" 
	d="
M603.383972,902.975708 
	C603.280884,902.547302 603.177795,902.118958 603.194092,901.167358 
	C602.945862,899.757690 602.578125,898.871155 602.210449,897.984619 
	C602.144714,897.311218 602.078918,896.637878 601.802246,895.414490 
	C601.358582,894.613586 601.125916,894.362671 600.893250,894.111755 
	C600.893250,894.111755 600.885376,894.047546 600.827271,893.938232 
	C600.561096,893.579956 600.322510,893.561462 600.053467,893.773560 
	C593.902832,891.127563 594.212891,885.221008 593.236389,880.029846 
	C592.970154,878.614685 593.391846,877.070190 594.074463,875.389771 
	C596.393188,878.189697 598.135315,881.184937 600.021851,884.428406 
	C601.067627,876.188904 602.594910,868.411011 602.867615,860.589355 
	C603.066772,854.875305 606.118835,850.982422 609.014709,846.831116 
	C609.707764,845.837524 611.546631,845.212341 612.882996,845.168640 
	C621.231445,844.895874 629.589294,844.920593 637.939270,844.680725 
	C645.345459,844.467896 651.282043,849.970642 652.095276,857.335938 
	C652.947144,865.051514 654.379089,872.703003 655.534241,880.231201 
	C656.327332,877.867615 657.153076,875.406677 658.037964,873.231384 
	C658.618530,874.018433 659.140015,874.519714 659.661499,875.020996 
	C659.690491,877.050781 659.719482,879.080566 659.476440,881.622803 
	C659.167847,882.770874 659.131226,883.406433 659.094604,884.042053 
	C658.984070,884.471069 658.873596,884.900146 658.427002,885.786865 
	C656.408630,888.863586 654.726318,891.482666 653.044067,894.101746 
	C652.946533,894.522400 652.848999,894.943054 652.380249,895.840881 
	C651.321716,898.840088 650.475586,901.330811 649.972717,903.889038 
	C646.470642,921.704834 626.477661,928.880249 612.640381,917.035767 
	C609.379700,914.244568 607.050964,910.364685 604.293518,906.985535 
	C604.224670,906.548523 604.155762,906.111511 604.191284,905.181091 
	C603.991760,904.117004 603.687866,903.546387 603.383972,902.975708 
M634.816589,873.652649 
	C634.566528,875.382019 633.485474,878.018127 634.210999,878.682800 
	C637.258057,881.474976 641.010315,881.745239 645.107117,879.556519 
	C640.452332,879.381287 636.011841,879.140381 637.600403,872.426147 
	C640.326111,872.106018 643.051819,871.785828 645.777527,871.465698 
	C642.340698,870.353638 638.996338,870.294861 635.663879,870.467163 
	C635.402161,870.480652 635.223694,872.104431 634.816589,873.652649 
M615.684937,870.008301 
	C614.188965,870.286804 612.692932,870.565308 611.196960,870.843811 
	C611.240417,871.147888 611.283875,871.451965 611.327393,871.756042 
	C614.908142,872.065308 618.488953,872.374573 622.069702,872.683838 
	C622.153320,872.240845 622.236938,871.797913 622.320557,871.354980 
	C620.374023,870.906555 618.427551,870.458130 615.684937,870.008301 
z"/>
<path fill="#161514" opacity="1.000000" stroke="none" 
	d="
M936.992920,900.619446 
	C938.578552,896.741638 940.164062,892.863831 942.195312,887.895996 
	C939.951172,888.544006 939.159180,888.772766 938.681458,888.910706 
	C933.018188,877.427002 924.875061,869.051575 912.357727,865.556458 
	C907.420105,864.177734 902.636353,864.824524 898.636719,867.929688 
	C891.442017,873.515320 885.737183,880.229492 884.482178,890.303406 
	C883.398865,889.114868 882.509033,888.138489 881.619141,887.162170 
	C881.211975,887.281738 880.804810,887.401245 880.397583,887.520813 
	C881.184875,891.085632 881.972168,894.650513 882.916382,898.556458 
	C882.115662,902.278931 880.681213,905.608643 880.308289,909.053284 
	C879.697083,914.698914 879.054810,920.520630 882.869751,925.676392 
	C882.604492,922.807312 882.339233,919.938293 882.035645,916.654663 
	C886.622803,919.842651 890.065002,929.944580 888.505493,934.443787 
	C886.612915,939.903748 873.480469,946.149170 865.362793,945.104553 
	C866.712402,944.193787 867.709717,943.520813 869.257141,942.476624 
	C867.068359,942.106567 865.419739,941.827881 863.771179,941.549133 
	C863.787476,941.193054 863.803711,940.837036 863.820007,940.480957 
	C865.200745,940.480957 866.581482,940.480957 868.088562,940.480957 
	C868.707825,936.731018 869.348267,932.853088 869.989624,928.969177 
	C874.751160,929.733704 877.089539,927.165771 876.781616,921.875977 
	C876.292419,913.472473 876.215210,905.045227 875.753662,896.639587 
	C875.648926,894.733215 874.100647,892.841370 874.204224,890.998291 
	C875.200073,873.272339 877.655701,856.060852 894.214417,844.268066 
	C893.494873,847.440002 892.576172,850.585510 892.149414,853.796387 
	C891.967651,855.164062 892.771790,856.681763 893.215881,858.103821 
	C893.382874,858.638489 894.155334,859.202148 894.044861,859.570801 
	C893.192810,862.414673 893.022888,865.433167 896.805786,865.327515 
	C904.064087,865.124817 906.000549,863.388733 905.983582,858.470520 
	C905.976685,856.491699 905.536987,854.518127 905.427734,852.534790 
	C905.327393,850.712769 905.406494,848.880920 906.427734,847.025391 
	C906.897034,850.530701 907.740723,854.035034 907.749329,857.541443 
	C907.762573,862.985107 911.047852,863.525024 915.823181,863.619507 
	C914.859314,862.415405 914.306152,861.724426 913.345825,860.524719 
	C914.724792,860.737732 915.602783,861.005554 916.470947,860.976990 
	C917.817078,860.932739 919.156555,860.686462 920.498901,860.525818 
	C920.117004,859.249207 919.636902,857.991882 919.380737,856.690491 
	C919.126343,855.397888 919.097168,854.060913 918.935120,852.392029 
	C917.696045,852.192383 916.136658,851.941101 914.577271,851.689819 
	C914.579895,851.533386 914.582458,851.377014 914.585083,851.220581 
	C916.936340,851.080627 919.287537,850.940674 921.638794,850.800720 
	C921.685730,850.474426 921.732666,850.148132 921.779602,849.821838 
	C919.535889,849.373901 917.292175,848.925903 914.457397,848.359924 
	C916.056396,846.988220 917.207031,846.001160 919.500610,844.033569 
	C916.249146,844.293762 914.392700,844.442383 911.957764,844.637268 
	C911.516907,842.898315 910.144592,839.568115 910.678162,839.228088 
	C912.932068,837.791504 915.732178,836.571533 918.371094,836.487732 
	C931.266541,836.078186 937.603943,844.332886 941.861206,855.047180 
	C943.008057,857.933228 944.664429,860.755127 945.118103,863.753052 
	C946.621704,873.688171 947.995056,883.666321 948.760071,893.678223 
	C949.063721,897.652649 947.438660,901.742981 947.121094,905.814087 
	C947.016907,907.149963 948.369873,908.555359 948.871948,909.993347 
	C949.555054,911.950134 951.184631,914.831177 950.438232,915.803345 
	C947.935120,919.063721 948.702454,922.075439 950.086609,925.047852 
	C951.922546,928.990417 954.220154,932.717957 956.394287,936.674133 
	C955.766907,937.025635 954.632263,937.661255 953.497620,938.296875 
	C953.574951,938.739319 953.652222,939.181763 953.729553,939.624207 
	C955.848694,939.319336 957.967834,939.014526 960.077332,938.711060 
	C958.422119,944.335083 955.763855,945.931458 949.980530,944.755981 
	C936.118774,941.938477 931.932251,935.219849 935.266663,921.023010 
	C936.177551,917.144836 937.255371,913.305908 938.313538,909.229309 
	C938.732300,909.765442 939.086609,910.218994 939.951416,911.326294 
	C940.444946,908.468872 940.844666,906.154907 941.209656,904.041443 
	C939.555908,904.356567 938.239990,904.607300 936.636108,904.575439 
	C936.173584,903.762634 935.999023,903.232422 936.085693,902.233521 
	C936.562317,901.382996 936.777588,901.001221 936.992920,900.619446 
M941.194214,926.511536 
	C941.428711,923.983643 941.663208,921.455811 941.897766,918.927917 
	C936.488281,927.434814 937.128479,933.442383 942.926880,935.195496 
	C942.309631,932.412964 941.745544,929.869995 941.194214,926.511536 
M941.997864,909.336426 
	C941.841248,911.245056 941.684692,913.153687 941.528137,915.062317 
	C944.813171,907.191589 945.973145,899.233215 943.499329,891.019531 
	C943.010864,896.840088 942.522339,902.660645 941.997864,909.336426 
M877.368225,939.554504 
	C876.020386,938.406555 874.672546,937.258667 872.707092,935.584717 
	C872.119995,937.795898 871.787598,939.047791 871.210876,941.219910 
	C873.730042,940.746765 875.377441,940.437317 877.368225,939.554504 
M919.589111,866.222473 
	C920.031860,866.295837 920.474609,866.369202 920.917358,866.442566 
	C920.746338,866.078796 920.575317,865.715027 920.404297,865.351257 
	C920.016785,865.552063 919.629272,865.752869 919.589111,866.222473 
M882.736023,931.817627 
	C882.687622,931.561157 882.639221,931.304688 882.590820,931.048218 
	C882.478394,931.104004 882.264160,931.175171 882.269897,931.212952 
	C882.308899,931.469116 882.394226,931.718201 882.736023,931.817627 
M936.729675,925.820374 
	C936.679810,925.562500 936.629944,925.304565 936.580139,925.046753 
	C936.466675,925.102783 936.250427,925.175049 936.256287,925.212158 
	C936.296814,925.469238 936.383606,925.719116 936.729675,925.820374 
M878.337341,932.107117 
	C878.337341,932.107117 878.636169,932.016174 878.636169,932.016174 
	C878.636169,932.016174 878.340027,931.920654 878.337341,932.107117 
M938.336792,917.105164 
	C938.336792,917.105164 938.644836,917.013367 938.644836,917.013367 
	C938.644836,917.013367 938.338501,916.914490 938.336792,917.105164 
M952.541016,943.503784 
	C952.541016,943.503784 952.488098,943.525024 952.541016,943.503784 
M942.511719,886.465942 
	C942.511719,886.465942 942.532776,886.518250 942.511719,886.465942 
z"/>
<path fill="#363433" opacity="1.000000" stroke="none" 
	d="
M748.411133,1105.718384 
	C745.091187,1102.986816 742.133179,1100.375244 738.972717,1098.036987 
	C734.946228,1095.057983 735.221191,1088.239868 739.820557,1086.051392 
	C745.939026,1083.140137 752.181335,1081.537476 757.986328,1086.950928 
	C758.176514,1087.128296 758.596252,1087.059570 758.909973,1087.098511 
	C761.834595,1081.197388 761.777893,1081.281006 767.446106,1085.125977 
	C774.682373,1090.034790 781.862671,1094.976074 790.857361,1096.454956 
	C795.461670,1097.211914 796.697876,1098.992188 797.996216,1102.934204 
	C793.145142,1108.060547 788.684570,1112.771973 784.226746,1117.485962 
	C782.036194,1119.802246 774.387024,1121.130615 771.785400,1118.591919 
	C765.182861,1112.149414 756.653870,1109.652466 748.411133,1105.718384 
z"/>
<path fill="#161514" opacity="1.000000" stroke="none" 
	d="
M657.978882,872.945679 
	C657.153076,875.406677 656.327332,877.867615 655.534241,880.231201 
	C654.379089,872.703003 652.947144,865.051514 652.095276,857.335938 
	C651.282043,849.970642 645.345459,844.467896 637.939270,844.680725 
	C629.589294,844.920593 621.231445,844.895874 612.882996,845.168640 
	C611.546631,845.212341 609.707764,845.837524 609.014709,846.831116 
	C606.118835,850.982422 603.066772,854.875305 602.867615,860.589355 
	C602.594910,868.411011 601.067627,876.188904 600.021851,884.428406 
	C598.135315,881.184937 596.393188,878.189697 594.317749,875.078003 
	C595.036926,863.546692 595.888550,852.108215 597.228455,840.727234 
	C597.877991,835.210754 601.809509,832.081177 606.981934,830.494080 
	C607.458130,830.348022 608.047974,830.312622 608.383545,830.005615 
	C618.750732,820.519409 629.421692,827.743286 639.950195,829.507263 
	C641.824402,829.821289 645.152954,829.384216 644.039062,833.640991 
	C644.005920,833.998779 643.973389,834.036072 643.973389,834.036072 
	C642.254456,833.552551 640.535461,833.069031 637.800354,832.299683 
	C638.100586,835.607910 638.361328,838.481628 638.712158,842.347656 
	C641.997559,841.642883 644.944214,840.748779 647.947510,840.474365 
	C649.506836,840.331909 651.653442,840.807678 652.673462,841.848389 
	C654.488403,843.700256 655.819824,846.107605 657.000549,848.459900 
	C657.488281,849.431519 657.580322,851.314697 656.970825,852.005493 
	C653.671753,855.744629 656.087097,858.705994 657.470825,862.240417 
	C658.499634,864.868042 657.881287,868.140503 657.986694,871.787354 
	C657.976807,872.448914 657.978882,872.945679 657.978882,872.945679 
M627.775818,842.256470 
	C628.577759,842.340271 629.379761,842.424011 630.181702,842.507751 
	C630.177307,842.124207 630.172913,841.740723 630.168518,841.357178 
	C629.375366,841.470642 628.582153,841.584106 627.775818,842.256470 
z"/>
<path fill="#A4A4A4" opacity="1.000000" stroke="none" 
	d="
M889.858643,956.259827 
	C899.685486,963.532043 906.202026,973.558350 910.139404,985.261536 
	C912.139709,991.207397 913.624939,997.326538 915.038940,1002.298035 
	C919.969177,990.403320 925.194641,977.796387 930.752808,965.083008 
	C927.967651,978.536804 924.663818,992.057678 921.786377,1005.668762 
	C919.114441,1018.308044 916.897705,1031.043579 914.323730,1044.560547 
	C913.667725,1042.925781 913.117432,1041.879028 912.819946,1040.765015 
	C906.577393,1017.389343 900.404663,993.994995 894.077454,970.642334 
	C893.469299,968.397827 891.604187,966.505188 890.920715,964.266663 
	C890.186523,961.861938 890.158386,959.241699 889.858643,956.259827 
z"/>
<path fill="#363433" opacity="1.000000" stroke="none" 
	d="
M479.376831,1114.003906 
	C475.489716,1115.697266 465.746033,1112.931152 463.187103,1110.080200 
	C460.999359,1107.642700 458.211609,1105.738647 456.063232,1103.272827 
	C454.683502,1101.689209 453.237427,1099.561890 453.114105,1097.597290 
	C452.734131,1091.542480 452.975494,1085.448608 452.975494,1080.519531 
	C461.235504,1075.510376 466.556335,1078.685181 472.130920,1082.766357 
	C477.255432,1086.518066 482.917542,1089.004150 489.863251,1088.505371 
	C492.100647,1088.344727 495.763336,1091.757935 496.721191,1094.307495 
	C497.834808,1097.271729 497.872131,1100.821289 493.009705,1103.051514 
	C487.931091,1105.380981 483.927338,1110.053955 479.376831,1114.003906 
M468.483398,1093.163452 
	C470.483429,1094.811157 472.483490,1096.458862 475.150269,1098.655762 
	C474.767609,1093.761719 472.592621,1091.610107 469.143097,1090.617188 
	C468.982330,1090.570801 468.415710,1091.934570 468.483398,1093.163452 
z"/>
<path fill="#C1C1C1" opacity="1.000000" stroke="none" 
	d="
M651.028442,919.021606 
	C653.558838,927.554138 652.810730,935.983826 650.578003,944.474304 
	C645.941101,962.106689 641.497803,979.789978 637.538208,995.252808 
	C635.613098,983.891785 633.277588,970.234619 631.024048,956.563965 
	C630.846863,955.489319 630.988037,954.213074 631.411255,953.212341 
	C634.441345,946.047852 634.409302,945.725098 628.550354,939.745422 
	C633.484375,935.362183 638.820251,931.651184 643.732239,927.445129 
	C646.522644,925.055786 648.619324,921.856262 651.028442,919.021606 
z"/>
<path fill="#363433" opacity="1.000000" stroke="none" 
	d="
M1075.040527,1090.018921 
	C1076.560425,1088.962402 1078.086060,1087.913818 1079.599609,1086.848022 
	C1083.913818,1083.809937 1088.544922,1081.121460 1092.436523,1077.613525 
	C1095.781372,1074.598511 1099.011963,1076.295044 1101.591675,1077.484253 
	C1103.338501,1078.289551 1104.362183,1081.645386 1104.821289,1084.031372 
	C1105.501221,1087.563965 1105.399536,1091.247925 1105.613403,1094.868530 
	C1105.642334,1095.356201 1105.634033,1095.862427 1105.537476,1096.338623 
	C1103.615112,1105.820190 1089.911255,1114.838623 1080.360229,1112.642578 
	C1075.947144,1111.627808 1071.691162,1109.929565 1067.598267,1108.267456 
	C1072.826294,1106.694336 1077.820068,1105.394897 1081.695312,1104.386475 
	C1079.931274,1099.784546 1078.405273,1095.671265 1076.747070,1091.611938 
	C1076.479980,1090.957764 1075.624268,1090.543823 1075.040527,1090.018921 
M1086.825928,1097.996582 
	C1087.782349,1096.653320 1088.948608,1095.406128 1089.622559,1093.933594 
	C1090.082520,1092.928955 1089.854858,1091.609497 1089.934570,1090.430908 
	C1088.493896,1091.509766 1086.560303,1092.313721 1085.759644,1093.749634 
	C1085.047119,1095.027344 1082.125122,1097.541260 1086.825928,1097.996582 
z"/>
<path fill="#C1C1C1" opacity="1.000000" stroke="none" 
	d="
M623.908691,940.942505 
	C621.104309,944.638306 619.383667,948.477966 621.907532,953.094177 
	C622.441223,954.070374 622.966003,955.403625 622.733093,956.393005 
	C620.092407,967.612854 617.303467,978.797791 614.311157,990.981812 
	C610.498901,969.500122 606.799255,948.977905 603.279297,928.424866 
	C602.816284,925.721558 603.271545,922.860962 603.779663,920.305176 
	C607.878967,924.715820 611.366760,929.020874 615.166626,933.030151 
	C617.862366,935.874512 620.979553,938.319336 623.908691,940.942505 
z"/>
<path fill="#363433" opacity="1.000000" stroke="none" 
	d="
M624.274841,940.922729 
	C620.979553,938.319336 617.862366,935.874512 615.166626,933.030151 
	C611.366760,929.020874 607.878967,924.715820 604.131470,920.206970 
	C604.034119,915.882385 604.063171,911.887939 604.192871,907.439575 
	C607.050964,910.364685 609.379700,914.244568 612.640381,917.035767 
	C626.477661,928.880249 646.470642,921.704834 649.972717,903.889038 
	C650.475586,901.330811 651.321716,898.840088 652.304688,896.155823 
	C652.089966,899.314148 651.417236,902.619812 651.110229,905.959045 
	C650.729248,910.102783 650.650940,914.274292 650.735168,918.727783 
	C648.619324,921.856262 646.522644,925.055786 643.732239,927.445129 
	C638.820251,931.651184 633.484375,935.362183 628.233398,939.597656 
	C626.974182,940.244202 625.807556,940.573608 624.274841,940.922729 
z"/>
<path fill="#3D3B3A" opacity="1.000000" stroke="none" 
	d="
M1074.693604,1090.062988 
	C1075.624268,1090.543823 1076.479980,1090.957764 1076.747070,1091.611938 
	C1078.405273,1095.671265 1079.931274,1099.784546 1081.695312,1104.386475 
	C1077.820068,1105.394897 1072.826294,1106.694336 1067.415894,1107.996826 
	C1064.291626,1107.495483 1061.584106,1106.990845 1058.512939,1106.418579 
	C1059.202881,1100.847046 1060.930054,1096.005859 1066.826050,1092.999268 
	C1068.338135,1092.381470 1069.177368,1091.827148 1070.016724,1091.272827 
	C1070.458008,1091.210449 1070.899170,1091.148071 1071.851562,1090.941406 
	C1072.589722,1090.640503 1072.786865,1090.452393 1072.954102,1090.232910 
	C1073.418335,1090.190918 1073.882568,1090.148926 1074.693604,1090.062988 
z"/>
<path fill="#363433" opacity="1.000000" stroke="none" 
	d="
M653.413940,894.081055 
	C654.726318,891.482666 656.408630,888.863586 658.376465,886.115540 
	C658.314209,889.450073 657.928772,892.890991 653.413940,894.081055 
z"/>
<path fill="#363433" opacity="1.000000" stroke="none" 
	d="
M602.124146,898.319336 
	C602.578125,898.871155 602.945862,899.757690 603.088623,900.854126 
	C602.588379,900.260803 602.313110,899.457458 602.124146,898.319336 
z"/>
<path fill="#363433" opacity="1.000000" stroke="none" 
	d="
M1069.688232,1091.237793 
	C1069.177368,1091.827148 1068.338135,1092.381470 1067.155762,1092.920776 
	C1067.661743,1092.338135 1068.510742,1091.770386 1069.688232,1091.237793 
z"/>
<path fill="#363433" opacity="1.000000" stroke="none" 
	d="
M658.037964,873.231384 
	C657.978882,872.945679 657.976807,872.448914 657.989014,872.200562 
	C658.607971,872.762146 659.214600,873.572083 659.741394,874.701538 
	C659.140015,874.519714 658.618530,874.018433 658.037964,873.231384 
z"/>
<path fill="#363433" opacity="1.000000" stroke="none" 
	d="
M659.344238,883.875732 
	C659.131226,883.406433 659.167847,882.770874 659.433594,882.056274 
	C659.639771,882.554626 659.616821,883.132019 659.344238,883.875732 
z"/>
<path fill="#363433" opacity="1.000000" stroke="none" 
	d="
M603.305420,903.263916 
	C603.687866,903.546387 603.991760,904.117004 604.118347,904.857300 
	C603.703003,904.535339 603.464966,904.043701 603.305420,903.263916 
z"/>
<path fill="#A4A4A4" opacity="1.000000" stroke="none" 
	d="
M931.299805,964.978577 
	C931.146606,964.495972 931.294373,963.902466 931.715698,963.163696 
	C931.859802,963.634827 931.730286,964.251221 931.299805,964.978577 
z"/>
<path fill="#161514" opacity="1.000000" stroke="none" 
	d="
M644.024780,833.982727 
	C644.043579,833.966675 644.344360,834.195923 644.344360,834.195923 
	C644.344360,834.195923 644.078369,834.205811 644.025879,834.120972 
	C643.973389,834.036072 644.005920,833.998779 644.024780,833.982727 
z"/>
<path fill="#363433" opacity="1.000000" stroke="none" 
	d="
M600.256714,893.848267 
	C600.322510,893.561462 600.561096,893.579956 600.811340,893.966431 
	C600.853455,894.103882 600.459961,893.922974 600.256714,893.848267 
z"/>
<path fill="#363433" opacity="1.000000" stroke="none" 
	d="
M600.910278,894.399536 
	C601.125916,894.362671 601.358582,894.613586 601.721436,895.085938 
	C601.543518,895.100647 601.235474,894.893982 600.910278,894.399536 
z"/>
<path fill="#363433" opacity="1.000000" stroke="none" 
	d="
M1072.742188,1090.279053 
	C1072.786865,1090.452393 1072.589722,1090.640503 1072.183105,1090.898560 
	C1072.096680,1090.710449 1072.272217,1090.485474 1072.742188,1090.279053 
z"/>
<path fill="#000000" opacity="1.000000" stroke="none" 
	d="
M1111.163574,296.175171 
	C1111.051880,296.204346 1110.864746,296.155945 1110.806152,296.026306 
	C1110.934692,295.945068 1111.088257,296.097626 1111.163574,296.175171 
z"/>
<path fill="#000000" opacity="1.000000" stroke="none" 
	d="
M306.979401,1102.988892 
	C306.873932,1103.032104 306.690582,1102.996948 306.625183,1102.859131 
	C306.743164,1102.756348 306.901520,1102.910522 306.979401,1102.988892 
z"/>
<path fill="#000000" opacity="1.000000" stroke="none" 
	d="
M297.020538,1111.011108 
	C297.126038,1110.967773 297.309601,1111.002808 297.375305,1111.140625 
	C297.257477,1111.243286 297.098602,1111.089355 297.020538,1111.011108 
z"/>
<path fill="#000000" opacity="1.000000" stroke="none" 
	d="
M329.979736,1134.989014 
	C329.874512,1135.032471 329.690643,1134.997192 329.624146,1134.858643 
	C329.741486,1134.755249 329.901093,1134.910278 329.979736,1134.989014 
z"/>
<path fill="#000000" opacity="1.000000" stroke="none" 
	d="
M326.979187,1130.988403 
	C326.874023,1131.031250 326.691833,1130.997070 326.627686,1130.861084 
	C326.745728,1130.759399 326.902161,1130.911255 326.979187,1130.988403 
z"/>
<path fill="#000000" opacity="1.000000" stroke="none" 
	d="
M411.166565,1219.178955 
	C411.054230,1219.207886 410.864624,1219.156982 410.803467,1219.024292 
	C410.931885,1218.942383 411.089325,1219.099121 411.166565,1219.178955 
z"/>
<path fill="#000000" opacity="1.000000" stroke="none" 
	d="
M299.020325,1114.010986 
	C299.125824,1113.967529 299.309937,1114.002930 299.376343,1114.141846 
	C299.258606,1114.245361 299.098969,1114.089966 299.020325,1114.010986 
z"/>
<path fill="#000000" opacity="1.000000" stroke="none" 
	d="
M312.020966,1132.011353 
	C312.126312,1131.968384 312.308777,1132.002930 312.373108,1132.139404 
	C312.254944,1132.241333 312.098114,1132.088867 312.020966,1132.011353 
z"/>
<path fill="#000000" opacity="1.000000" stroke="none" 
	d="
M301.021759,1117.012695 
	C301.126678,1116.970947 301.304901,1117.002808 301.363770,1117.133057 
	C301.244415,1117.231201 301.095093,1117.086426 301.021759,1117.012695 
z"/>
<path fill="#000000" opacity="1.000000" stroke="none" 
	d="
M317.978973,1118.988403 
	C317.873840,1119.031128 317.692444,1118.997192 317.629272,1118.862061 
	C317.747498,1118.760986 317.902740,1118.911743 317.978973,1118.988403 
z"/>
<path fill="#000000" opacity="1.000000" stroke="none" 
	d="
M304.020660,1121.011230 
	C304.126068,1120.968018 304.309357,1121.002930 304.374634,1121.140381 
	C304.256622,1121.242920 304.098511,1121.089233 304.020660,1121.011230 
z"/>
<path fill="#000000" opacity="1.000000" stroke="none" 
	d="
M306.020264,1124.010986 
	C306.125732,1123.967651 306.309845,1124.002930 306.376251,1124.141602 
	C306.258514,1124.244995 306.098938,1124.089722 306.020264,1124.010986 
z"/>
<path fill="#000000" opacity="1.000000" stroke="none" 
	d="
M320.978973,1122.988281 
	C320.873901,1123.031250 320.692444,1122.997192 320.629089,1122.861938 
	C320.747223,1122.760620 320.902588,1122.911499 320.978973,1122.988281 
z"/>
<path fill="#000000" opacity="1.000000" stroke="none" 
	d="
M309.020660,1128.011108 
	C309.126068,1127.967896 309.309296,1128.002686 309.374573,1128.140137 
	C309.256622,1128.242920 309.098511,1128.089233 309.020660,1128.011108 
z"/>
<path fill="#000000" opacity="1.000000" stroke="none" 
	d="
M323.979065,1126.988770 
	C323.873810,1127.031860 323.691406,1126.997314 323.626923,1126.860596 
	C323.744843,1126.758545 323.901886,1126.911133 323.979065,1126.988770 
z"/>
<path fill="#000000" opacity="1.000000" stroke="none" 
	d="
M338.979065,1145.988281 
	C338.874023,1146.031250 338.692261,1145.997070 338.628479,1145.861084 
	C338.746460,1145.759521 338.902344,1145.911255 338.979065,1145.988281 
z"/>
<path fill="#000000" opacity="1.000000" stroke="none" 
	d="
M283.165314,1066.176758 
	C283.053253,1066.206421 282.864868,1066.157837 282.804932,1066.026978 
	C282.933380,1065.944824 283.088989,1066.098389 283.165314,1066.176758 
z"/>
<path fill="#000000" opacity="1.000000" stroke="none" 
	d="
M278.169983,1057.181396 
	C278.056976,1057.210815 277.864746,1057.159302 277.801025,1057.024414 
	C277.929504,1056.941162 278.090759,1057.100464 278.169983,1057.181396 
z"/>
<path fill="#000000" opacity="1.000000" stroke="none" 
	d="
M304.979431,1099.988770 
	C304.872253,1100.031738 304.686615,1099.996094 304.621277,1099.857544 
	C304.741547,1099.754761 304.900940,1099.909912 304.979431,1099.988770 
z"/>
<path fill="#000000" opacity="1.000000" stroke="none" 
	d="
M286.166870,1071.178467 
	C286.054565,1071.208008 285.865082,1071.158081 285.804108,1071.025635 
	C285.932587,1070.942993 286.089691,1071.098999 286.166870,1071.178467 
z"/>
<path fill="#000000" opacity="1.000000" stroke="none" 
	d="
M289.153168,1076.163086 
	C289.043549,1076.193359 288.864838,1076.152710 288.814545,1076.032471 
	C288.942963,1075.952881 289.084076,1076.092041 289.153168,1076.163086 
z"/>
<path fill="#000000" opacity="1.000000" stroke="none" 
	d="
M292.153809,1081.163940 
	C292.044098,1081.194092 291.864868,1081.152832 291.814056,1081.032104 
	C291.942474,1080.952515 292.084351,1081.092529 292.153809,1081.163940 
z"/>
<path fill="#000000" opacity="1.000000" stroke="none" 
	d="
M295.164734,1086.175781 
	C295.052734,1086.205811 294.864868,1086.157959 294.805695,1086.027710 
	C294.934387,1085.945312 295.088837,1086.098022 295.164734,1086.175781 
z"/>
<path fill="#000000" opacity="1.000000" stroke="none" 
	d="
M296.513855,1089.427490 
	C296.600220,1089.379272 296.630524,1089.587158 296.630524,1089.587158 
	C296.630524,1089.587158 296.427490,1089.475830 296.513855,1089.427490 
z"/>
<path fill="#000000" opacity="1.000000" stroke="none" 
	d="
M298.642090,1092.573486 
	C298.559387,1092.628418 298.511871,1092.423706 298.511871,1092.423706 
	C298.511871,1092.423706 298.724792,1092.518677 298.642090,1092.573486 
z"/>
<path fill="#000000" opacity="1.000000" stroke="none" 
	d="
M302.164520,1097.175781 
	C302.052673,1097.205444 301.865021,1097.157349 301.805847,1097.027344 
	C301.934326,1096.945190 302.088715,1097.098022 302.164520,1097.175781 
z"/>
<path fill="#363433" opacity="1.000000" stroke="none" 
	d="
M913.797058,916.987793 
	C916.043640,916.987793 917.842590,916.987793 919.784058,916.987793 
	C917.160278,923.261414 910.103943,923.606750 902.869324,916.987793 
	C907.138367,916.987793 910.243896,916.987793 913.797058,916.987793 
z"/>
<path fill="#161514" opacity="1.000000" stroke="none" 
	d="
M895.948242,884.014160 
	C899.976990,885.052368 903.677551,886.098206 907.378052,887.144043 
	C907.133118,887.851196 906.888245,888.558350 906.643311,889.265503 
	C902.641479,887.711731 898.639343,886.158630 894.643066,884.590637 
	C894.612122,884.578491 894.630493,884.274170 894.676758,884.258789 
	C894.983398,884.156555 895.303894,884.095886 895.948242,884.014160 
z"/>
<path fill="#161514" opacity="1.000000" stroke="none" 
	d="
M931.426392,884.643311 
	C927.540710,886.239868 923.776917,887.585022 920.013123,888.930176 
	C919.850952,888.440002 919.688782,887.949768 919.526611,887.459595 
	C923.081726,885.090088 926.902588,883.512146 931.426392,884.643311 
z"/>
<path fill="#161514" opacity="1.000000" stroke="none" 
	d="
M925.950256,893.988159 
	C927.191772,894.135498 928.069824,894.271790 930.233704,894.607666 
	C925.625916,896.538025 922.759705,896.403015 920.333069,894.150635 
	C920.442810,893.646057 920.552551,893.141541 920.662292,892.636963 
	C922.303833,893.083679 923.945312,893.530396 925.950256,893.988159 
z"/>
<path fill="#161514" opacity="1.000000" stroke="none" 
	d="
M931.460327,893.462646 
	C931.494385,893.445496 931.426331,893.479858 931.460327,893.462646 
z"/>
<path fill="#000000" opacity="1.000000" stroke="none" 
	d="
M936.748657,900.846680 
	C936.777588,901.001221 936.562317,901.382996 936.117126,902.005493 
	C936.092957,901.855469 936.298645,901.464661 936.748657,900.846680 
z"/>
<path fill="#363433" opacity="1.000000" stroke="none" 
	d="
M636.916077,872.831482 
	C636.011841,879.140381 640.452332,879.381287 645.107117,879.556519 
	C641.010315,881.745239 637.258057,881.474976 634.210999,878.682800 
	C633.485474,878.018127 634.566528,875.382019 635.229980,873.289429 
	C636.067627,872.894592 636.491821,872.863037 636.916077,872.831482 
z"/>
<path fill="#161514" opacity="1.000000" stroke="none" 
	d="
M637.258240,872.628784 
	C636.491821,872.863037 636.067627,872.894592 635.324951,872.953003 
	C635.223694,872.104431 635.402161,870.480652 635.663879,870.467163 
	C638.996338,870.294861 642.340698,870.353638 645.777527,871.465698 
	C643.051819,871.785828 640.326111,872.106018 637.258240,872.628784 
z"/>
<path fill="#161514" opacity="1.000000" stroke="none" 
	d="
M616.083008,870.009033 
	C618.427551,870.458130 620.374023,870.906555 622.320557,871.354980 
	C622.236938,871.797913 622.153320,872.240845 622.069702,872.683838 
	C618.488953,872.374573 614.908142,872.065308 611.327393,871.756042 
	C611.283875,871.451965 611.240417,871.147888 611.196960,870.843811 
	C612.692932,870.565308 614.188965,870.286804 616.083008,870.009033 
z"/>
<path fill="#000000" opacity="1.000000" stroke="none" 
	d="
M941.187866,926.919312 
	C941.745544,929.869995 942.309631,932.412964 942.926880,935.195496 
	C937.128479,933.442383 936.488281,927.434814 941.897766,918.927917 
	C941.663208,921.455811 941.428711,923.983643 941.187866,926.919312 
z"/>
<path fill="#000000" opacity="1.000000" stroke="none" 
	d="
M942.015869,908.908813 
	C942.522339,902.660645 943.010864,896.840088 943.499329,891.019531 
	C945.973145,899.233215 944.813171,907.191589 941.528137,915.062317 
	C941.684692,913.153687 941.841248,911.245056 942.015869,908.908813 
z"/>
<path fill="#000000" opacity="1.000000" stroke="none" 
	d="
M877.196533,939.841187 
	C875.377441,940.437317 873.730042,940.746765 871.210876,941.219910 
	C871.787598,939.047791 872.119995,937.795898 872.707092,935.584717 
	C874.672546,937.258667 876.020386,938.406555 877.196533,939.841187 
z"/>
<path fill="#000000" opacity="1.000000" stroke="none" 
	d="
M919.415466,866.088135 
	C919.629272,865.752869 920.016785,865.552063 920.404297,865.351257 
	C920.575317,865.715027 920.746338,866.078796 920.917358,866.442566 
	C920.474609,866.369202 920.031860,866.295837 919.415466,866.088135 
z"/>
<path fill="#000000" opacity="1.000000" stroke="none" 
	d="
M882.600342,931.893616 
	C882.394226,931.718201 882.308899,931.469116 882.269897,931.212952 
	C882.264160,931.175171 882.478394,931.104004 882.590820,931.048218 
	C882.639221,931.304688 882.687622,931.561157 882.600342,931.893616 
z"/>
<path fill="#000000" opacity="1.000000" stroke="none" 
	d="
M936.592651,925.895813 
	C936.383606,925.719116 936.296814,925.469238 936.256287,925.212158 
	C936.250427,925.175049 936.466675,925.102783 936.580078,925.046753 
	C936.629944,925.304565 936.679810,925.562500 936.592651,925.895813 
z"/>
<path fill="#000000" opacity="1.000000" stroke="none" 
	d="
M878.338684,932.013916 
	C878.340027,931.920654 878.636169,932.016174 878.636169,932.016174 
	C878.636169,932.016174 878.337341,932.107117 878.338684,932.013916 
z"/>
<path fill="#000000" opacity="1.000000" stroke="none" 
	d="
M938.337646,917.009827 
	C938.338501,916.914490 938.644836,917.013367 938.644836,917.013367 
	C938.644836,917.013367 938.336792,917.105164 938.337646,917.009827 
z"/>
<path fill="#000000" opacity="1.000000" stroke="none" 
	d="
M952.514526,943.514404 
	C952.488098,943.525024 952.541016,943.503784 952.514526,943.514404 
z"/>
<path fill="#000000" opacity="1.000000" stroke="none" 
	d="
M942.522217,886.492065 
	C942.532776,886.518250 942.511719,886.465942 942.522217,886.492065 
z"/>
<path fill="#000000" opacity="1.000000" stroke="none" 
	d="
M627.782410,841.977051 
	C628.582153,841.584106 629.375366,841.470642 630.168518,841.357178 
	C630.172913,841.740723 630.177307,842.124207 630.181702,842.507751 
	C629.379761,842.424011 628.577759,842.340271 627.782410,841.977051 
z"/>
<path fill="#000000" opacity="1.000000" stroke="none" 
	d="
M468.260742,1092.902588 
	C468.415710,1091.934570 468.982330,1090.570801 469.143097,1090.617188 
	C472.592621,1091.610107 474.767609,1093.761719 475.150269,1098.655762 
	C472.483490,1096.458862 470.483429,1094.811157 468.260742,1092.902588 
z"/>
<path fill="#000000" opacity="1.000000" stroke="none" 
	d="
M1086.597168,1098.273926 
	C1082.125122,1097.541260 1085.047119,1095.027344 1085.759644,1093.749634 
	C1086.560303,1092.313721 1088.493896,1091.509766 1089.934570,1090.430908 
	C1089.854858,1091.609497 1090.082520,1092.928955 1089.622559,1093.933594 
	C1088.948608,1095.406128 1087.782349,1096.653320 1086.597168,1098.273926 
z"/>
</svg>