<svg id="svg" version="1.1" xmlns="http://www.w3.org/2000/svg" xmlns:xlink="http://www.w3.org/1999/xlink" width="400" height="400" viewBox="0, 0, 400,400"><g id="svgg"><path id="path0" d="M302.239 94.306 C 302.717 94.798,303.165 95.202,303.235 95.202 C 303.306 95.202,302.973 94.798,302.495 94.306 C 302.018 93.813,301.569 93.410,301.499 93.410 C 301.429 93.410,301.762 93.813,302.239 94.306 M307.358 95.026 C 307.358 95.070,307.732 95.444,308.189 95.857 L 309.021 96.609 308.269 95.777 C 307.569 95.002,307.358 94.828,307.358 95.026 M287.446 177.405 C 285.621 181.585,276.855 201.779,276.718 202.120 C 276.614 202.379,277.174 202.433,279.322 202.376 L 282.058 202.303 283.018 200.000 L 283.978 197.697 288.294 197.697 L 292.609 197.697 293.538 200.000 L 294.466 202.303 297.585 202.375 C 299.300 202.415,300.704 202.393,300.704 202.326 C 300.704 201.938,288.929 175.175,288.729 175.108 C 288.594 175.064,288.017 176.097,287.446 177.405 M30.725 176.214 C 17.773 179.022,17.661 199.589,30.582 202.381 C 34.722 203.276,39.570 202.553,41.879 200.697 L 42.427 200.256 41.314 197.878 L 40.200 195.500 39.230 196.132 C 33.445 199.901,26.666 196.308,26.626 189.453 C 26.587 182.636,32.990 179.028,38.714 182.642 C 39.265 182.990,39.750 183.237,39.791 183.192 C 40.001 182.963,41.715 178.575,41.715 178.268 C 41.715 176.784,34.400 175.417,30.725 176.214 M246.705 176.092 C 233.916 178.354,232.911 198.262,245.387 202.195 C 249.229 203.406,256.628 202.341,257.825 200.405 C 257.946 200.209,256.163 195.937,255.814 195.588 C 255.764 195.538,255.289 195.790,254.759 196.150 C 250.459 199.068,244.312 197.307,242.716 192.698 C 239.985 184.815,247.656 178.136,254.279 182.631 C 255.435 183.415,255.520 183.302,257.363 178.499 C 257.886 177.136,250.383 175.441,246.705 176.092 M63.980 189.251 L 63.980 202.431 66.667 202.431 L 69.354 202.431 69.354 189.251 L 69.354 176.072 66.667 176.072 L 63.980 176.072 63.980 189.251 M90.851 178.759 L 90.851 181.446 93.922 181.446 L 96.993 181.446 96.993 191.939 L 96.993 202.431 99.680 202.431 L 102.367 202.431 102.367 191.939 L 102.367 181.446 105.566 181.446 L 108.765 181.446 108.765 178.759 L 108.765 176.072 99.808 176.072 L 90.851 176.072 90.851 178.759 M127.234 176.276 C 127.281 176.388,129.479 180.520,132.118 185.458 L 136.916 194.436 136.916 198.434 L 136.916 202.431 139.603 202.431 L 142.290 202.431 142.290 198.421 L 142.290 194.411 147.153 185.501 C 149.827 180.600,152.015 176.473,152.015 176.331 C 152.015 176.170,150.799 176.072,148.797 176.072 L 145.579 176.072 142.685 182.015 L 139.791 187.958 136.817 182.015 L 133.843 176.072 130.496 176.072 C 128.655 176.072,127.187 176.163,127.234 176.276 M205.374 176.430 C 201.683 177.597,200.006 179.888,200.002 183.768 C 199.999 187.731,201.315 189.336,206.289 191.435 C 209.635 192.847,210.877 193.894,210.877 195.307 C 210.877 198.347,206.285 198.912,201.936 196.407 C 200.642 195.662,200.952 195.432,199.295 198.363 L 198.333 200.063 200.062 200.967 C 206.626 204.401,214.336 202.888,216.126 197.816 C 217.587 193.676,215.915 189.939,211.722 187.971 C 205.829 185.206,205.424 184.888,205.554 183.132 C 205.757 180.390,209.240 180.192,214.593 182.617 C 214.833 182.726,216.763 179.187,216.763 178.636 C 216.763 177.107,208.373 175.481,205.374 176.430 M320.921 189.223 L 320.921 202.431 323.736 202.431 L 326.552 202.431 326.552 198.367 L 326.552 194.302 329.825 194.200 C 336.081 194.005,339.110 191.118,339.179 185.285 C 339.257 178.610,336.085 176.345,326.360 176.133 L 320.921 176.014 320.921 189.223 M360.333 189.251 L 360.333 202.431 369.674 202.431 L 379.015 202.431 379.015 199.872 L 379.015 197.313 372.361 197.313 L 365.707 197.313 365.707 194.626 L 365.707 191.939 371.337 191.939 L 376.967 191.939 376.967 189.379 L 376.967 186.820 371.337 186.820 L 365.707 186.820 365.707 184.133 L 365.707 181.446 372.105 181.446 L 378.503 181.446 378.503 178.759 L 378.503 176.072 369.418 176.072 L 360.333 176.072 360.333 189.251 M332.438 182.085 C 335.599 184.949,333.574 188.850,328.807 189.078 L 326.552 189.186 326.552 185.293 L 326.552 181.399 329.212 181.487 C 331.436 181.560,331.966 181.658,332.438 182.085 M289.572 189.929 C 290.135 191.357,290.633 192.624,290.680 192.744 C 290.727 192.864,289.720 192.962,288.441 192.962 C 287.163 192.962,286.116 192.876,286.116 192.770 C 286.114 192.429,288.263 187.332,288.408 187.332 C 288.485 187.332,289.009 188.501,289.572 189.929 M159.360 210.780 C 159.332 210.806,158.906 210.861,158.413 210.902 C 157.921 210.942,157.402 211.036,157.262 211.111 C 157.121 211.185,156.775 211.277,156.494 211.315 C 155.383 211.467,154.816 211.669,154.939 211.869 C 155.011 211.985,154.814 212.217,154.502 212.386 C 153.677 212.833,152.527 214.560,152.527 215.350 C 152.527 215.725,152.367 216.192,152.170 216.388 C 151.939 216.620,151.808 217.356,151.797 218.481 C 151.789 219.436,151.717 220.534,151.638 220.921 C 151.558 221.308,151.599 221.625,151.729 221.625 C 151.967 221.625,151.912 222.756,151.617 223.928 C 151.468 224.522,151.486 224.515,151.864 223.835 C 152.088 223.432,152.282 222.914,152.295 222.683 C 152.309 222.453,152.477 223.057,152.669 224.025 C 153.102 226.203,153.294 226.439,153.299 224.803 C 153.302 224.111,153.474 222.741,153.682 221.759 C 153.890 220.777,153.998 219.777,153.922 219.537 C 153.446 218.037,155.723 215.840,157.481 216.104 C 158.066 216.192,159.466 216.101,160.591 215.903 C 165.787 214.987,166.591 215.881,167.355 223.417 C 167.463 224.486,167.566 224.910,167.588 224.373 C 167.609 223.843,167.739 223.210,167.876 222.965 C 168.207 222.374,168.620 219.333,168.388 219.190 C 168.288 219.128,168.126 218.371,168.028 217.509 C 167.904 216.409,167.683 215.769,167.291 215.367 C 166.983 215.052,166.503 214.359,166.226 213.828 C 165.936 213.273,165.363 212.690,164.882 212.461 C 164.421 212.241,164.044 211.961,164.044 211.838 C 164.044 211.715,163.928 211.685,163.788 211.772 C 163.647 211.859,163.532 211.834,163.532 211.715 C 163.532 211.597,163.227 211.475,162.854 211.444 C 162.481 211.413,162.049 211.286,161.894 211.161 C 161.653 210.967,159.505 210.644,159.360 210.780 M160.316 211.672 C 160.198 211.862,160.340 211.905,160.749 211.802 C 161.083 211.718,161.199 211.719,161.008 211.806 C 160.713 211.938,160.713 212.001,161.008 212.211 C 161.270 212.399,161.240 212.423,160.888 212.308 C 160.630 212.225,160.249 212.156,160.041 212.156 C 159.833 212.156,159.729 212.049,159.810 211.918 C 159.890 211.788,159.696 211.631,159.377 211.569 C 158.961 211.490,159.036 211.448,159.644 211.423 C 160.205 211.400,160.432 211.484,160.316 211.672 M163.824 212.303 C 164.252 212.524,164.548 212.761,164.480 212.829 C 164.412 212.896,163.970 212.715,163.497 212.427 C 162.482 211.808,162.705 211.724,163.824 212.303 M160.184 212.813 C 160.927 213.034,161.494 213.256,161.443 213.306 C 161.393 213.356,160.605 213.184,159.691 212.923 C 158.777 212.662,158.210 212.440,158.431 212.430 C 158.652 212.420,159.440 212.593,160.184 212.813 M229.586 213.891 C 228.140 214.620,226.141 216.330,226.414 216.604 C 226.501 216.691,226.438 216.763,226.274 216.763 C 226.110 216.763,225.976 216.914,225.976 217.098 C 225.976 217.283,225.752 217.674,225.479 217.967 C 225.206 218.260,225.053 218.569,225.138 218.655 C 225.223 218.740,225.152 218.810,224.980 218.810 C 224.807 218.810,224.724 218.905,224.796 219.020 C 224.867 219.136,224.766 219.539,224.570 219.916 C 224.375 220.293,224.279 220.601,224.359 220.601 C 224.438 220.601,224.364 220.769,224.194 220.974 C 224.023 221.179,223.954 221.459,224.038 221.596 C 224.123 221.733,224.081 221.915,223.944 221.999 C 223.807 222.084,223.760 222.324,223.840 222.532 C 223.920 222.741,223.848 223.077,223.679 223.281 C 223.510 223.484,223.441 223.761,223.525 223.896 C 223.608 224.031,223.546 225.390,223.385 226.914 C 223.225 228.439,223.070 230.677,223.040 231.888 C 223.002 233.456,222.864 234.265,222.562 234.696 C 222.083 235.379,222.024 235.701,222.376 235.701 C 222.507 235.701,222.687 235.470,222.777 235.189 C 222.866 234.907,223.049 234.677,223.183 234.677 C 223.494 234.677,223.281 235.887,222.886 236.363 C 222.697 236.591,222.684 236.724,222.852 236.724 C 222.998 236.724,223.164 236.586,223.220 236.417 C 223.295 236.194,223.372 236.189,223.501 236.397 C 223.707 236.732,222.338 237.794,221.834 237.689 C 221.256 237.570,221.466 238.318,222.073 238.542 C 222.405 238.665,222.649 238.656,222.649 238.522 C 222.649 238.394,222.994 238.085,223.417 237.835 C 224.150 237.402,224.185 237.302,224.202 235.581 C 224.223 233.534,224.648 233.942,224.678 236.039 C 224.694 237.123,224.220 238.210,223.880 237.871 C 223.680 237.670,222.129 239.257,222.197 239.592 C 222.234 239.774,222.121 239.894,221.945 239.859 C 221.769 239.824,221.625 239.910,221.625 240.051 C 221.625 240.192,221.449 240.307,221.233 240.307 C 221.018 240.307,220.771 240.491,220.685 240.716 C 220.569 241.016,220.326 241.084,219.766 240.972 C 218.801 240.779,219.190 241.364,220.345 241.842 C 221.208 242.200,220.943 242.707,219.734 243.010 C 219.364 243.103,218.997 243.283,218.918 243.411 C 218.839 243.538,218.667 243.576,218.536 243.495 C 218.405 243.414,218.298 243.458,218.298 243.593 C 218.298 243.728,217.351 244.144,216.193 244.518 C 213.889 245.261,213.134 245.835,213.354 246.677 C 213.441 247.010,213.375 247.217,213.181 247.217 C 212.963 247.217,212.916 247.480,213.028 248.077 C 213.200 248.991,212.775 251.488,212.360 252.004 C 212.224 252.174,212.181 252.425,212.266 252.562 C 212.351 252.699,212.307 252.882,212.169 252.967 C 212.030 253.053,211.982 253.450,212.062 253.850 C 212.145 254.265,212.085 254.652,211.921 254.753 C 211.727 254.874,211.688 255.560,211.798 256.896 C 211.929 258.471,211.858 259.217,211.438 260.653 C 211.151 261.638,210.789 263.284,210.636 264.310 C 210.314 266.464,209.480 269.051,208.793 270.033 C 208.531 270.407,208.317 270.839,208.317 270.994 C 208.317 271.149,208.032 271.867,207.684 272.589 C 207.336 273.311,207.101 273.984,207.163 274.084 C 207.225 274.184,206.848 274.643,206.325 275.104 C 205.802 275.565,204.787 276.475,204.069 277.126 C 201.968 279.033,201.401 279.482,200.815 279.698 C 200.350 279.870,200.498 279.971,201.740 280.332 C 202.895 280.668,203.328 280.941,203.717 281.581 L 204.215 282.400 203.082 282.976 C 202.459 283.293,201.627 283.985,201.232 284.514 C 200.838 285.044,200.457 285.534,200.385 285.605 C 200.171 285.816,200.240 288.676,200.459 288.676 C 200.571 288.676,200.629 288.820,200.589 288.996 C 200.492 289.420,201.696 291.425,202.626 292.386 C 205.737 295.604,209.889 299.411,210.685 299.776 C 211.212 300.018,211.644 300.345,211.644 300.503 C 211.644 300.660,211.720 300.713,211.813 300.621 C 211.905 300.528,212.107 300.556,212.261 300.682 C 212.761 301.094,216.625 303.000,216.967 303.004 C 217.150 303.006,217.668 303.204,218.119 303.444 C 218.569 303.685,218.996 303.894,219.066 303.910 C 219.136 303.926,219.495 304.086,219.862 304.266 L 220.531 304.593 220.021 305.655 C 219.740 306.240,219.400 306.788,219.266 306.874 C 219.132 306.961,219.043 307.109,219.068 307.204 C 219.093 307.299,218.914 307.862,218.670 308.455 C 217.630 310.979,218.119 311.550,221.156 311.359 C 223.180 311.231,224.413 311.086,224.696 310.941 C 224.766 310.905,226.148 310.851,227.767 310.821 C 229.386 310.792,231.955 310.611,233.476 310.420 C 236.183 310.081,236.280 310.087,238.011 310.687 L 239.780 311.300 240.394 310.723 C 240.995 310.159,241.607 310.133,242.866 310.620 C 243.600 310.904,248.416 311.043,251.138 310.859 C 251.676 310.823,252.156 310.858,252.206 310.938 C 252.255 311.018,252.966 311.049,253.787 311.008 C 255.583 310.919,255.616 310.919,257.710 311.022 C 260.415 311.155,261.975 308.480,260.263 306.643 C 259.979 306.338,259.777 306.054,259.816 306.013 C 260.034 305.776,257.679 303.532,257.036 303.365 C 256.735 303.286,255.943 303.408,255.276 303.635 C 253.470 304.248,250.817 304.582,251.454 304.116 C 251.719 303.922,252.084 303.820,252.264 303.889 C 252.444 303.958,252.591 303.919,252.591 303.802 C 252.591 303.685,253.311 303.451,254.191 303.283 C 255.070 303.115,256.654 302.695,257.710 302.350 C 258.765 302.004,259.773 301.723,259.950 301.724 C 260.127 301.726,260.862 301.442,261.584 301.094 C 262.306 300.746,263.015 300.533,263.158 300.622 C 263.319 300.721,263.339 300.653,263.209 300.444 C 263.059 300.201,263.115 300.149,263.409 300.262 C 263.634 300.348,263.855 300.330,263.899 300.222 C 263.943 300.114,265.074 299.479,266.411 298.812 C 269.253 297.395,270.238 296.848,270.683 296.441 C 270.860 296.278,271.354 295.991,271.779 295.803 C 272.205 295.615,272.553 295.386,272.553 295.295 C 272.553 295.204,272.815 295.063,273.135 294.983 C 273.456 294.902,274.176 294.429,274.735 293.932 C 275.294 293.434,275.817 293.027,275.896 293.026 C 275.975 293.026,276.198 292.623,276.392 292.131 C 276.585 291.638,276.808 291.235,276.887 291.235 C 276.966 291.235,277.031 290.601,277.031 289.827 C 277.031 289.053,276.945 288.420,276.839 288.420 C 276.734 288.420,276.647 288.175,276.647 287.876 C 276.647 287.577,276.187 286.643,275.625 285.801 L 274.602 284.269 275.497 284.374 C 275.989 284.431,276.392 284.402,276.392 284.309 C 276.392 284.217,275.771 284.077,275.013 283.998 C 274.254 283.920,273.281 283.674,272.850 283.451 C 272.419 283.228,271.715 283.045,271.286 283.045 C 270.857 283.045,270.505 283.008,270.505 282.963 C 270.505 282.213,271.506 280.331,272.216 279.746 C 273.078 279.036,273.064 278.685,272.169 278.540 C 271.163 278.376,269.738 277.866,269.738 277.669 C 269.738 277.538,269.565 277.498,269.354 277.579 C 269.143 277.660,268.970 277.592,268.970 277.428 C 268.970 277.263,268.868 277.192,268.743 277.269 C 268.442 277.456,266.923 276.916,266.923 276.622 C 266.923 276.495,266.721 276.391,266.475 276.391 C 266.228 276.391,264.764 275.757,263.221 274.983 C 261.678 274.210,260.267 273.576,260.086 273.576 C 259.905 273.576,259.757 273.454,259.757 273.305 C 259.757 273.156,259.651 273.100,259.521 273.180 C 259.171 273.397,258.194 271.898,258.376 271.424 C 258.464 271.196,258.401 271.017,258.234 271.017 C 258.070 271.017,258.002 270.910,258.082 270.779 C 258.163 270.648,258.128 270.478,258.003 270.400 C 257.878 270.323,257.687 269.883,257.579 269.423 C 257.354 268.465,257.407 268.616,256.859 267.389 C 256.628 266.872,256.388 265.924,256.325 265.283 C 256.262 264.642,256.134 263.994,256.040 263.842 C 255.947 263.690,255.839 263.314,255.801 263.005 C 255.763 262.697,255.607 261.983,255.455 261.420 C 255.303 260.857,255.117 259.706,255.043 258.861 C 254.969 258.017,254.793 256.807,254.652 256.174 C 254.511 255.541,254.235 253.599,254.038 251.859 C 253.842 250.119,253.570 248.622,253.433 248.532 C 253.095 248.310,252.310 245.929,252.483 245.649 C 252.559 245.526,252.517 245.425,252.389 245.425 C 252.262 245.425,251.952 244.971,251.702 244.415 C 251.238 243.386,250.369 242.866,249.113 242.866 C 248.791 242.866,248.454 242.749,248.366 242.606 C 248.278 242.463,248.106 242.407,247.985 242.482 C 247.863 242.557,247.695 242.507,247.610 242.370 C 247.526 242.233,247.287 242.186,247.081 242.265 C 246.874 242.344,246.705 242.277,246.705 242.115 C 246.705 241.953,246.561 241.839,246.385 241.862 C 245.294 242.003,244.851 241.842,245.194 241.429 C 245.673 240.852,245.728 239.694,245.258 240.084 C 245.069 240.241,244.914 240.284,244.914 240.179 C 244.914 240.074,244.770 240.104,244.594 240.244 C 244.201 240.558,243.327 240.279,243.579 239.920 C 243.680 239.777,244.098 239.547,244.509 239.408 C 245.407 239.104,245.634 238.640,244.911 238.586 C 244.625 238.564,244.458 238.655,244.539 238.787 C 244.755 239.137,244.418 239.082,244.053 238.708 C 243.447 238.087,243.141 236.830,243.105 234.805 C 243.054 231.978,242.650 226.770,242.292 224.312 C 242.128 223.186,242.018 222.179,242.046 222.073 C 242.075 221.967,241.987 221.881,241.851 221.881 C 241.714 221.881,241.674 221.697,241.760 221.471 C 241.846 221.246,241.804 220.987,241.665 220.895 C 241.298 220.654,240.543 218.281,240.735 217.971 C 240.825 217.826,240.777 217.782,240.630 217.873 C 240.477 217.968,240.182 217.589,239.944 216.995 C 239.714 216.420,239.212 215.684,238.829 215.359 C 238.445 215.034,237.855 214.525,237.516 214.229 C 236.063 212.957,231.797 212.775,229.586 213.891 M159.058 213.918 C 159.485 214.186,159.382 214.204,158.413 214.035 C 157.780 213.925,156.610 213.831,155.814 213.827 C 155.018 213.823,154.429 213.719,154.505 213.597 C 154.704 213.276,158.456 213.541,159.058 213.918 M236.399 214.339 C 238.088 215.045,239.060 215.995,239.829 217.691 C 240.766 219.759,240.763 220.060,239.820 218.426 C 238.968 216.949,238.285 216.276,236.852 215.499 C 236.263 215.179,236.073 214.994,236.405 215.062 C 237.424 215.270,236.739 214.736,235.496 214.353 C 234.762 214.127,234.521 213.976,234.877 213.965 C 235.198 213.956,235.883 214.124,236.399 214.339 M155.535 214.960 C 155.008 215.063,154.341 215.360,154.053 215.620 C 153.566 216.061,153.541 216.062,153.703 215.639 C 153.917 215.084,154.701 214.743,155.726 214.761 C 156.421 214.773,156.403 214.792,155.535 214.960 M167.083 216.156 C 167.509 217.091,167.323 217.143,166.802 216.234 C 166.565 215.821,166.462 215.483,166.574 215.483 C 166.685 215.483,166.914 215.786,167.083 216.156 M236.596 215.968 C 238.006 216.621,238.877 217.625,240.036 219.932 C 240.580 221.015,241.086 221.753,241.161 221.571 C 241.235 221.390,241.228 221.633,241.146 222.113 C 241.028 222.791,241.069 222.938,241.330 222.777 C 241.541 222.647,241.604 222.670,241.499 222.840 C 241.407 222.989,241.510 223.972,241.727 225.024 C 241.946 226.081,242.083 227.726,242.033 228.696 L 241.943 230.454 241.893 228.328 C 241.864 227.096,241.743 226.263,241.605 226.348 C 241.471 226.431,241.410 226.154,241.466 225.715 C 241.530 225.209,241.469 224.995,241.292 225.104 C 241.112 225.215,241.082 225.076,241.203 224.696 C 241.319 224.331,241.291 224.179,241.126 224.281 C 240.967 224.379,240.923 224.227,241.011 223.889 C 241.109 223.513,241.062 223.394,240.862 223.518 C 240.672 223.635,240.622 223.559,240.721 223.302 C 240.805 223.083,240.740 222.905,240.575 222.905 C 240.411 222.905,240.346 222.793,240.430 222.656 C 240.667 222.274,239.868 220.887,238.436 219.194 C 237.722 218.349,237.463 217.946,237.862 218.298 C 238.601 218.951,238.616 218.909,238.046 217.782 C 237.672 217.042,236.345 216.065,235.279 215.746 C 234.761 215.591,234.698 215.522,235.061 215.511 C 235.342 215.502,236.033 215.708,236.596 215.968 M226.862 219.770 C 226.642 220.298,226.013 221.420,225.465 222.265 C 224.916 223.109,224.343 224.088,224.191 224.440 C 223.927 225.052,223.920 225.045,224.037 224.278 C 224.105 223.836,224.758 222.426,225.489 221.143 C 226.838 218.774,227.591 218.022,226.862 219.770 M238.797 221.689 C 239.070 222.217,239.251 222.649,239.199 222.649 C 239.062 222.649,237.490 220.089,237.500 219.881 C 237.513 219.605,238.250 220.634,238.797 221.689 M233.909 221.303 C 236.082 222.041,239.296 224.975,239.782 226.664 L 239.989 227.383 240.234 226.764 C 240.661 225.684,240.807 226.595,240.452 228.122 C 240.265 228.929,239.888 229.842,239.616 230.150 C 239.344 230.458,238.981 231.427,238.810 232.303 C 238.639 233.179,238.216 234.503,237.870 235.246 C 236.980 237.156,237.229 240.307,238.270 240.307 C 239.057 240.307,238.364 246.351,236.921 252.079 C 236.159 255.106,235.149 259.801,234.676 262.513 C 234.204 265.226,233.742 267.356,233.650 267.248 C 233.321 266.860,231.556 260.539,229.915 253.871 C 228.695 248.912,228.113 246.975,227.750 246.663 C 227.104 246.109,227.213 239.924,227.886 238.962 C 228.328 238.332,228.408 236.692,228.030 236.017 C 227.585 235.222,226.743 232.085,226.743 231.222 C 226.743 230.726,226.592 230.323,226.374 230.239 C 225.724 229.990,225.173 228.860,224.969 227.357 C 224.745 225.708,225.451 224.588,227.472 223.381 C 227.986 223.074,228.695 222.561,229.047 222.240 C 229.878 221.482,231.882 220.599,232.374 220.774 C 232.585 220.850,233.276 221.088,233.909 221.303 M226.743 221.241 C 226.568 221.452,226.506 221.625,226.606 221.625 C 226.705 221.625,226.417 222.091,225.966 222.661 C 225.515 223.230,225.089 223.639,225.018 223.568 C 224.882 223.432,226.693 220.857,226.925 220.857 C 227.000 220.857,226.919 221.030,226.743 221.241 M236.980 222.035 C 237.571 222.694,237.537 222.684,236.532 221.909 C 235.934 221.448,235.445 221.018,235.445 220.955 C 235.445 220.706,236.374 221.359,236.980 222.035 M309.482 221.242 C 308.523 221.913,308.268 223.215,308.841 224.510 L 309.334 225.623 308.607 226.041 C 304.544 228.372,308.335 233.783,312.532 231.643 C 313.337 231.232,313.513 231.217,313.827 231.531 C 314.059 231.763,314.586 231.866,315.276 231.814 L 316.361 231.734 315.415 230.498 L 314.469 229.263 315.043 227.683 C 315.359 226.814,315.671 225.960,315.737 225.784 C 316.123 224.758,314.059 225.483,313.645 226.519 L 313.223 227.573 311.826 225.706 C 310.315 223.687,310.219 223.406,310.831 222.795 C 311.368 222.258,311.762 222.288,312.574 222.927 L 313.253 223.461 313.752 222.863 C 314.417 222.065,314.403 222.007,313.405 221.390 C 312.369 220.750,310.296 220.671,309.482 221.242 M290.211 226.488 L 290.211 231.862 291.235 231.862 L 292.258 231.862 292.258 229.687 L 292.258 227.511 294.690 227.511 L 297.121 227.511 297.121 229.687 L 297.121 231.862 298.145 231.862 L 299.168 231.862 299.168 226.488 L 299.168 221.113 298.145 221.113 L 297.121 221.113 297.121 223.417 L 297.121 225.720 294.690 225.720 L 292.258 225.720 292.258 223.417 L 292.258 221.113 291.235 221.113 L 290.211 221.113 290.211 226.488 M323.622 223.097 C 325.940 229.267,327.183 232.374,327.334 232.374 C 327.429 232.374,328.061 231.107,328.738 229.559 C 330.231 226.144,330.024 226.143,331.381 229.580 C 331.997 231.139,332.593 232.318,332.707 232.202 C 332.891 232.012,336.788 221.785,336.788 221.490 C 336.788 221.423,336.337 221.369,335.786 221.369 L 334.783 221.369 333.834 224.248 C 333.313 225.832,332.806 227.216,332.708 227.324 C 332.611 227.432,331.981 226.136,331.309 224.445 L 330.087 221.369 329.091 221.369 L 328.094 221.369 328.612 222.682 L 329.130 223.995 328.435 225.766 C 327.793 227.403,327.319 228.157,327.319 227.543 C 327.319 227.403,326.847 225.957,326.269 224.329 L 325.219 221.369 324.096 221.369 L 322.973 221.369 323.622 223.097 M156.238 222.635 C 155.876 222.781,156.194 222.869,157.326 222.937 C 158.928 223.033,159.432 222.844,158.349 222.554 C 157.596 222.352,156.871 222.380,156.238 222.635 M162.252 222.649 C 161.771 222.959,163.073 222.959,164.044 222.649 C 164.599 222.471,164.548 222.441,163.660 222.422 C 163.097 222.410,162.463 222.512,162.252 222.649 M226.313 224.776 L 225.145 225.880 225.614 226.759 L 226.083 227.639 226.235 226.578 C 226.319 225.994,226.703 225.101,227.090 224.594 C 228.030 223.362,227.737 223.431,226.313 224.776 M311.583 228.538 C 312.424 229.752,312.166 230.326,310.781 230.326 C 309.062 230.326,308.362 228.787,309.544 227.605 C 310.291 226.858,310.477 226.943,311.583 228.538 M228.803 228.650 C 228.937 228.784,229.450 228.893,229.942 228.893 C 230.435 228.893,230.947 228.784,231.080 228.650 C 231.232 228.497,230.812 228.407,229.941 228.407 C 229.069 228.407,228.650 228.496,228.803 228.650 M235.558 228.642 C 236.095 229.080,236.913 229.163,237.435 228.831 C 237.640 228.701,237.449 228.626,236.923 228.629 C 236.462 228.633,235.854 228.546,235.573 228.436 C 235.068 228.240,235.068 228.243,235.558 228.642 M242.303 237.172 C 242.521 237.557,242.536 237.748,242.350 237.748 C 241.629 237.748,241.278 235.913,241.496 233.284 L 241.709 230.710 241.843 233.653 C 241.919 235.306,242.121 236.849,242.303 237.172 M154.142 233.269 C 154.143 234.114,154.191 234.429,154.248 233.969 C 154.305 233.509,154.304 232.818,154.246 232.433 C 154.187 232.048,154.141 232.425,154.142 233.269 M153.370 235.945 C 153.059 236.198,152.868 236.468,152.946 236.546 C 153.113 236.713,151.611 237.527,151.312 237.431 C 151.131 237.372,149.280 238.189,148.177 238.813 C 147.965 238.933,147.390 239.231,146.897 239.477 C 146.404 239.722,145.963 240.010,145.916 240.115 C 145.869 240.221,145.668 240.307,145.468 240.307 C 145.269 240.307,145.106 240.420,145.106 240.558 C 145.106 240.696,144.818 240.881,144.466 240.970 C 144.114 241.058,143.826 241.208,143.826 241.303 C 143.826 241.398,143.480 241.680,143.058 241.930 C 142.636 242.179,142.290 242.297,142.290 242.192 C 142.290 242.087,142.140 242.207,141.955 242.459 C 141.771 242.712,141.271 242.946,140.845 242.979 C 140.420 243.013,139.937 243.123,139.773 243.224 C 139.609 243.325,139.475 243.340,139.475 243.256 C 139.475 242.010,137.994 244.766,137.800 246.373 C 137.708 247.136,137.156 248.816,136.885 249.160 C 136.764 249.314,136.738 249.512,136.827 249.601 C 136.916 249.691,136.863 249.916,136.709 250.102 C 136.554 250.287,136.428 250.664,136.427 250.939 C 136.425 252.271,136.112 254.502,135.890 254.769 C 135.753 254.934,135.714 255.142,135.803 255.232 C 135.892 255.321,135.805 255.587,135.609 255.823 C 135.413 256.059,135.282 256.293,135.317 256.341 C 135.352 256.390,135.368 256.516,135.353 256.622 C 135.339 256.727,135.306 256.987,135.282 257.198 C 135.173 258.136,134.797 259.501,134.648 259.501 C 134.559 259.501,134.485 260.307,134.485 261.293 C 134.485 262.278,134.571 263.084,134.677 263.084 C 135.060 263.084,134.858 264.313,134.448 264.470 C 134.217 264.559,134.092 264.695,134.169 264.773 C 134.247 264.851,133.991 265.222,133.600 265.599 C 132.855 266.316,131.542 268.690,131.542 269.321 C 131.542 269.789,129.865 271.814,129.653 271.602 C 129.566 271.515,129.495 271.629,129.495 271.856 C 129.495 272.082,129.265 272.429,128.984 272.625 C 128.704 272.822,128.541 273.049,128.622 273.131 C 128.704 273.212,128.504 273.422,128.178 273.596 C 127.852 273.771,127.452 274.039,127.289 274.193 C 127.126 274.346,126.663 274.702,126.260 274.984 C 125.071 275.815,123.407 277.602,123.578 277.864 C 123.665 277.997,124.235 278.171,124.844 278.251 C 127.242 278.564,127.913 281.050,125.848 281.971 C 125.250 282.238,124.259 282.877,123.647 283.392 C 122.965 283.965,122.145 284.389,121.530 284.488 C 120.978 284.576,120.457 284.761,120.372 284.898 C 120.282 285.043,120.419 285.087,120.697 285.004 C 122.390 284.499,122.724 284.483,122.361 284.922 C 122.168 285.157,122.096 285.349,122.201 285.349 C 122.306 285.349,122.281 285.493,122.146 285.669 C 121.888 286.004,121.922 288.259,122.204 289.571 C 122.294 289.994,122.384 290.541,122.404 290.787 C 122.423 291.033,122.508 291.235,122.592 291.235 C 122.741 291.235,123.705 293.022,123.697 293.282 C 123.695 293.353,123.980 293.698,124.331 294.050 C 124.682 294.402,124.884 294.517,124.781 294.306 C 124.615 293.965,124.632 293.965,124.934 294.306 C 125.121 294.517,125.446 294.733,125.657 294.785 C 125.867 294.838,126.385 294.964,126.807 295.066 C 127.230 295.168,128.340 295.787,129.274 296.442 C 130.209 297.097,131.101 297.633,131.258 297.633 C 131.414 297.633,131.542 297.748,131.542 297.889 C 131.542 298.029,131.718 298.145,131.934 298.145 C 132.150 298.145,132.754 298.335,133.278 298.568 C 133.801 298.801,134.322 298.972,134.435 298.947 C 134.548 298.923,134.816 299.079,135.031 299.294 C 135.246 299.509,135.515 299.628,135.628 299.558 C 135.915 299.380,137.428 299.935,137.428 300.217 C 137.428 300.344,137.687 300.449,138.004 300.450 C 138.321 300.450,138.925 300.680,139.347 300.960 C 139.770 301.240,140.749 301.653,141.523 301.878 C 142.297 302.103,143.067 302.400,143.234 302.537 C 143.401 302.674,143.861 302.884,144.257 303.004 C 144.737 303.149,143.950 303.213,141.907 303.197 C 138.911 303.172,138.801 303.192,137.408 303.981 C 136.059 304.745,134.890 305.751,135.086 305.980 C 135.134 306.037,135.093 306.784,134.994 307.641 C 134.853 308.850,134.910 309.413,135.247 310.160 L 135.681 311.123 137.642 311.160 C 138.721 311.180,140.870 311.258,142.418 311.332 C 143.967 311.407,146.385 311.372,147.793 311.255 C 149.780 311.089,150.427 311.116,150.690 311.375 C 151.096 311.775,151.502 311.793,152.398 311.453 C 152.767 311.312,153.494 311.133,154.014 311.054 C 155.237 310.867,155.735 310.764,157.134 310.411 C 159.700 309.763,164.048 309.949,165.266 310.759 C 166.650 311.679,167.739 311.856,169.462 311.440 C 171.133 311.036,174.914 311.053,176.919 311.474 C 178.610 311.828,179.299 311.521,180.122 310.045 C 180.358 309.623,180.608 309.219,180.678 309.149 C 180.895 308.933,180.823 306.334,180.601 306.334 C 180.486 306.334,180.459 306.226,180.540 306.095 C 180.809 305.659,178.262 303.387,177.119 303.045 C 175.718 302.625,175.885 302.235,177.699 301.697 C 178.503 301.458,179.330 301.123,179.536 300.952 C 179.742 300.781,179.910 300.715,179.910 300.806 C 179.910 300.897,180.193 300.786,180.539 300.560 C 180.885 300.333,181.288 300.222,181.435 300.313 C 181.582 300.404,181.702 300.365,181.702 300.227 C 181.702 300.089,182.134 299.835,182.662 299.662 C 183.626 299.347,186.395 297.602,186.691 297.122 C 186.779 296.981,187.018 296.865,187.222 296.865 C 187.863 296.865,190.061 295.255,190.693 294.321 C 191.026 293.830,192.074 292.563,193.021 291.507 C 195.350 288.908,196.025 285.403,194.419 284.245 C 194.230 284.109,194.348 284.077,194.727 284.161 C 195.170 284.259,195.262 284.219,195.060 284.017 C 194.906 283.863,194.515 283.717,194.191 283.692 C 192.697 283.578,191.814 283.152,190.646 281.985 C 189.963 281.301,189.240 280.742,189.039 280.742 C 188.838 280.742,188.531 280.397,188.356 279.974 C 187.410 277.692,191.148 275.841,193.206 277.573 L 194.002 278.242 193.679 277.509 C 193.502 277.105,193.296 276.718,193.222 276.647 C 192.420 275.885,191.683 274.496,191.683 273.746 C 191.683 273.103,191.432 272.557,190.776 271.772 C 189.825 270.634,189.264 269.738,189.502 269.738 C 189.724 269.738,188.891 267.884,188.450 267.397 C 188.178 267.096,188.044 266.406,188.028 265.223 C 188.004 263.417,186.902 260.858,185.861 260.192 C 185.685 260.079,185.541 259.862,185.541 259.708 C 185.541 259.555,185.356 259.294,185.129 259.129 C 184.846 258.921,184.652 258.172,184.505 256.719 C 184.380 255.474,184.067 254.143,183.741 253.470 C 183.380 252.724,183.118 251.513,182.984 249.966 C 182.871 248.665,182.661 247.313,182.517 246.961 C 181.973 245.631,181.886 245.279,181.938 244.619 C 181.967 244.246,181.867 243.864,181.714 243.770 C 181.562 243.676,181.503 243.492,181.583 243.363 C 181.829 242.965,180.599 241.964,179.973 242.053 C 179.457 242.126,177.073 241.206,176.072 240.547 C 175.861 240.408,175.170 240.053,174.536 239.757 C 173.903 239.462,173.212 239.077,173.001 238.902 C 172.790 238.728,172.308 238.511,171.931 238.422 C 171.554 238.332,171.066 238.080,170.848 237.862 C 170.629 237.643,170.206 237.417,169.908 237.360 C 169.610 237.302,168.773 236.921,168.048 236.512 L 166.731 235.768 166.725 237.974 C 166.721 239.841,166.517 240.905,165.394 244.914 C 164.665 247.518,163.816 250.946,163.507 252.533 C 163.198 254.119,162.908 255.380,162.861 255.333 C 162.815 255.287,162.653 254.135,162.501 252.774 C 162.349 251.413,161.951 248.899,161.617 247.188 C 161.016 244.114,161.014 244.066,161.490 243.179 C 161.915 242.386,161.930 242.201,161.617 241.595 C 160.411 239.264,158.168 240.801,158.909 243.449 C 159.184 244.432,159.125 244.882,158.302 248.067 C 157.800 250.007,157.388 251.905,157.386 252.285 C 157.384 252.665,157.288 253.123,157.173 253.305 C 156.896 253.740,154.236 239.638,154.012 236.553 C 153.935 235.486,153.934 235.485,153.370 235.945 M242.346 240.144 C 242.341 240.304,242.111 240.163,241.834 239.831 C 241.557 239.499,241.335 239.096,241.339 238.935 C 241.344 238.775,241.574 238.916,241.851 239.248 C 242.128 239.580,242.351 239.983,242.346 240.144 M245.057 240.699 C 244.783 240.906,244.323 241.068,244.033 241.060 C 243.669 241.050,243.784 240.941,244.402 240.707 C 245.587 240.258,245.640 240.258,245.057 240.699 M223.302 240.796 C 223.223 240.925,222.784 240.972,222.328 240.900 C 221.113 240.711,221.129 240.563,222.365 240.563 C 222.960 240.563,223.382 240.668,223.302 240.796 M219.791 262.851 C 219.956 263.567,220.026 264.258,219.947 264.387 C 219.868 264.515,219.933 264.619,220.092 264.619 C 220.264 264.619,220.314 264.826,220.218 265.131 C 220.118 265.446,220.172 265.643,220.358 265.643 C 220.535 265.643,220.605 265.856,220.527 266.155 C 220.454 266.436,220.488 266.724,220.602 266.795 C 220.717 266.866,220.949 267.759,221.118 268.779 C 221.288 269.799,221.637 271.278,221.896 272.066 C 222.329 273.390,222.336 273.624,221.985 275.132 C 221.775 276.030,221.558 277.113,221.503 277.538 C 221.448 277.963,221.326 278.887,221.233 279.591 C 221.141 280.294,220.884 281.273,220.664 281.766 C 220.444 282.258,220.244 282.719,220.219 282.790 C 219.901 283.704,219.540 284.325,219.328 284.325 C 219.184 284.325,219.081 284.411,219.099 284.517 C 219.118 284.623,218.985 285.063,218.804 285.495 L 218.476 286.281 217.044 285.513 C 216.256 285.090,215.526 284.621,215.423 284.471 C 215.320 284.320,215.233 284.288,215.231 284.400 C 215.229 284.511,214.728 284.310,214.118 283.952 C 213.508 283.595,212.932 283.379,212.838 283.472 C 212.745 283.566,212.668 283.508,212.668 283.344 C 212.668 283.180,212.582 283.065,212.476 283.089 C 212.008 283.194,210.365 282.706,210.365 282.462 C 210.365 282.314,210.432 282.260,210.514 282.342 C 210.597 282.424,210.888 282.299,211.162 282.065 C 211.437 281.830,211.717 281.669,211.786 281.708 C 211.855 281.746,212.191 281.499,212.531 281.158 C 212.872 280.817,213.244 280.498,213.357 280.448 C 213.627 280.331,214.971 278.262,214.971 277.964 C 214.971 277.837,215.147 277.588,215.361 277.410 C 215.576 277.232,215.696 277.031,215.629 276.964 C 215.562 276.897,215.676 276.674,215.881 276.468 C 216.087 276.263,216.195 275.997,216.122 275.878 C 216.048 275.759,216.096 275.394,216.227 275.067 C 216.621 274.082,216.845 273.458,216.868 273.278 C 216.881 273.184,216.975 273.023,217.078 272.920 C 217.181 272.817,217.197 272.462,217.114 272.131 C 217.026 271.778,217.077 271.529,217.239 271.529 C 217.390 271.529,217.453 271.370,217.379 271.175 C 217.304 270.981,217.417 270.154,217.630 269.339 C 217.843 268.524,217.964 267.771,217.900 267.667 C 217.836 267.563,217.891 267.440,218.024 267.392 C 218.156 267.345,218.333 266.673,218.416 265.899 C 218.864 261.754,219.309 260.766,219.791 262.851 M247.890 263.264 C 247.825 263.329,247.939 263.780,248.143 264.268 C 248.346 264.755,248.445 265.264,248.362 265.398 C 248.278 265.533,248.345 265.643,248.509 265.643 C 248.673 265.643,248.742 265.812,248.663 266.019 C 248.584 266.225,248.621 266.458,248.746 266.535 C 249.020 266.704,249.658 269.419,249.578 270.072 C 249.542 270.366,249.629 270.468,249.817 270.352 C 250.019 270.227,250.067 270.344,249.968 270.721 C 249.889 271.024,249.909 271.325,250.012 271.389 C 250.116 271.453,250.351 272.173,250.535 272.989 C 251.413 276.886,253.823 280.252,256.110 280.777 C 256.849 280.947,257.454 281.188,257.454 281.313 C 257.454 281.438,257.569 281.469,257.710 281.382 C 257.850 281.295,258.109 281.314,258.285 281.424 C 258.461 281.534,258.720 281.631,258.861 281.638 C 259.565 281.677,260.781 282.090,260.781 282.290 C 260.781 282.415,260.953 282.451,261.164 282.370 C 261.376 282.289,261.548 282.350,261.548 282.506 C 261.548 282.662,261.635 282.771,261.740 282.749 C 261.943 282.706,262.136 282.777,264.363 283.713 C 265.652 284.254,265.706 284.308,265.003 284.352 C 264.080 284.411,263.534 284.481,263.276 284.575 C 263.170 284.613,262.997 284.668,262.892 284.695 C 262.786 284.723,262.412 284.871,262.060 285.024 C 261.336 285.339,259.695 285.970,259.501 286.008 C 259.431 286.021,259.143 286.125,258.861 286.238 C 258.580 286.351,257.486 286.780,256.430 287.192 C 255.374 287.603,253.902 288.231,253.158 288.588 C 252.414 288.944,251.666 289.257,251.495 289.283 C 251.324 289.309,251.040 289.420,250.864 289.530 C 250.655 289.660,250.530 289.569,250.505 289.267 C 250.483 289.012,250.448 288.688,250.426 288.548 C 250.404 288.407,249.550 286.605,248.527 284.543 C 247.504 282.481,246.627 280.581,246.578 280.320 C 246.529 280.060,246.479 279.818,246.469 279.782 C 246.458 279.747,246.459 279.645,246.471 279.555 C 246.483 279.465,246.387 279.321,246.257 279.235 C 245.927 279.016,245.402 277.404,245.572 277.130 C 245.649 277.005,245.577 276.903,245.413 276.903 C 245.249 276.903,245.181 276.731,245.262 276.520 C 245.343 276.308,245.298 276.136,245.162 276.136 C 244.844 276.136,244.835 274.167,245.152 273.971 C 245.282 273.891,245.342 273.250,245.283 272.549 C 245.216 271.732,245.278 271.273,245.457 271.273 C 245.631 271.273,245.673 271.019,245.568 270.600 C 245.355 269.750,245.908 266.202,246.364 265.495 C 246.552 265.202,246.630 264.885,246.535 264.791 C 246.441 264.697,246.495 264.619,246.654 264.619 C 246.814 264.619,246.886 264.465,246.813 264.276 C 246.741 264.088,246.858 263.787,247.074 263.608 C 247.290 263.428,247.405 263.181,247.329 263.058 C 247.253 262.935,247.374 262.904,247.599 262.990 C 247.823 263.077,247.954 263.200,247.890 263.264 M176.555 264.649 C 176.708 265.087,176.770 265.548,176.693 265.672 C 176.616 265.797,176.671 265.899,176.814 265.899 C 176.958 265.899,177.198 266.352,177.347 266.906 C 177.496 267.460,177.902 268.410,178.249 269.017 C 178.596 269.625,178.882 270.323,178.884 270.569 C 178.885 270.816,178.989 271.017,179.115 271.017 C 179.294 271.017,180.132 272.664,180.287 273.321 C 180.521 274.310,182.462 277.195,182.766 277.006 C 182.885 276.933,182.981 276.995,182.981 277.144 C 182.981 277.293,183.102 277.415,183.250 277.415 C 183.562 277.415,184.773 278.666,184.773 278.988 C 184.773 279.108,184.770 279.267,184.767 279.340 C 184.764 279.413,185.047 279.780,185.395 280.156 L 186.028 280.838 184.441 281.622 C 183.568 282.053,182.769 282.537,182.665 282.697 C 182.561 282.857,182.159 283.068,181.772 283.165 C 181.384 283.262,181.008 283.425,180.937 283.527 C 180.611 283.990,178.953 284.803,178.739 284.605 C 178.609 284.485,178.071 284.249,177.543 284.080 C 177.015 283.911,176.583 283.621,176.583 283.435 C 176.583 283.249,176.188 282.073,175.705 280.822 C 175.014 279.032,174.857 278.317,174.971 277.469 C 175.052 276.862,175.010 276.392,174.874 276.392 C 174.737 276.392,174.639 275.229,174.648 273.705 C 174.657 272.227,174.763 271.018,174.883 271.017 C 175.004 271.017,175.031 270.830,174.943 270.601 C 174.749 270.095,175.339 266.155,175.608 266.155 C 175.714 266.155,175.738 265.994,175.662 265.797 C 175.587 265.600,175.632 265.372,175.764 265.291 C 175.895 265.210,175.947 264.853,175.880 264.497 C 175.704 263.579,176.223 263.695,176.555 264.649 M144.731 266.163 C 145.290 269.192,145.745 279.865,145.326 280.125 C 145.190 280.209,144.815 280.871,144.492 281.597 C 143.817 283.120,142.665 284.581,142.140 284.581 C 141.941 284.581,141.779 284.678,141.779 284.796 C 141.779 285.891,138.137 285.664,137.399 284.523 C 137.313 284.390,137.198 284.288,137.143 284.296 C 136.814 284.344,135.893 283.974,135.893 283.793 C 135.893 283.674,135.437 283.454,134.880 283.304 C 134.324 283.155,133.691 282.855,133.475 282.638 C 133.258 282.422,132.937 282.325,132.759 282.423 C 132.582 282.521,132.841 282.243,133.333 281.805 C 133.826 281.367,134.684 280.866,135.241 280.692 C 136.266 280.370,139.731 277.282,139.731 276.690 C 139.731 276.528,139.962 276.252,140.243 276.076 C 140.525 275.900,140.755 275.649,140.755 275.518 C 140.755 275.387,140.910 275.098,141.099 274.876 C 141.288 274.654,141.646 273.954,141.894 273.321 C 142.142 272.687,142.468 271.881,142.618 271.529 C 142.769 271.177,142.921 270.659,142.956 270.377 C 142.991 270.096,143.163 269.520,143.337 269.098 C 143.512 268.676,143.679 268.244,143.709 268.138 C 143.738 268.033,143.785 267.917,143.814 267.882 C 143.908 267.765,144.121 266.804,144.197 266.155 C 144.238 265.803,144.287 265.409,144.305 265.280 C 144.365 264.851,144.565 265.264,144.731 266.163 M278.026 280.170 C 277.864 280.277,277.819 280.576,277.921 280.863 C 278.081 281.310,278.117 281.288,278.235 280.671 C 278.308 280.288,278.355 279.976,278.339 279.978 C 278.324 279.980,278.183 280.067,278.026 280.170 M281.153 281.994 C 280.611 282.560,280.524 282.780,280.785 282.930 C 280.973 283.039,281.038 283.031,280.931 282.912 C 280.823 282.794,281.046 282.372,281.426 281.976 C 281.806 281.579,282.060 281.254,281.990 281.254 C 281.919 281.254,281.543 281.587,281.153 281.994 M234.801 283.941 C 235.063 285.067,235.383 286.127,235.511 286.297 C 235.640 286.467,235.675 286.718,235.590 286.855 C 235.506 286.992,235.555 287.178,235.701 287.268 C 236.278 287.625,235.593 287.908,234.150 287.908 C 233.227 287.908,232.630 287.799,232.630 287.630 C 232.630 287.119,233.515 283.943,233.695 283.809 C 233.792 283.737,233.862 283.507,233.850 283.298 C 233.711 280.881,234.159 281.185,234.801 283.941 M278.582 284.205 C 278.309 284.412,278.200 284.581,278.341 284.581 C 278.482 284.581,278.821 284.412,279.094 284.205 C 279.367 283.999,279.475 283.829,279.335 283.829 C 279.194 283.829,278.855 283.999,278.582 284.205 M163.349 285.605 L 165.086 286.756 163.605 286.925 C 162.791 287.017,161.729 287.217,161.245 287.368 C 160.140 287.714,160.162 287.755,160.629 286.239 C 160.845 285.538,161.068 284.811,161.125 284.624 C 161.252 284.206,161.216 284.190,163.349 285.605 M197.313 286.152 C 197.313 286.273,197.601 286.372,197.953 286.372 C 198.305 286.372,198.592 286.328,198.592 286.274 C 198.592 286.220,198.305 286.121,197.953 286.054 C 197.601 285.987,197.313 286.031,197.313 286.152 M92.632 300.512 C 93.259 301.180,93.806 301.727,93.847 301.727 C 94.039 301.727,93.836 301.498,92.706 300.437 L 91.491 299.296 92.632 300.512 " stroke="none" fill="#040404" fill-rule="evenodd"></path><path id="path1" d="M154.063 235.963 C 154.063 236.738,155.596 245.783,156.577 250.800 C 157.036 253.145,157.060 253.195,157.248 252.207 C 157.355 251.644,157.827 249.636,158.296 247.745 C 159.085 244.560,159.121 244.241,158.781 243.427 C 158.307 242.293,158.302 242.335,159.066 241.209 C 159.425 240.680,159.684 240.219,159.642 240.184 C 159.599 240.149,159.050 239.799,158.421 239.407 C 156.998 238.520,154.575 236.252,154.575 235.807 C 154.575 235.624,154.459 235.404,154.319 235.317 C 154.169 235.224,154.063 235.492,154.063 235.963 M165.188 236.292 C 164.762 236.882,163.530 237.991,162.452 238.758 L 160.491 240.152 161.121 240.781 C 161.984 241.644,162.132 242.430,161.601 243.328 C 161.176 244.048,161.185 244.216,161.831 247.630 C 162.201 249.585,162.583 252.105,162.678 253.231 L 162.852 255.278 163.547 251.922 C 163.930 250.076,164.789 246.563,165.456 244.116 C 166.408 240.626,166.661 239.295,166.628 237.940 C 166.548 234.690,166.438 234.563,165.188 236.292 M227.511 245.285 C 227.511 245.880,227.669 246.380,227.913 246.558 C 228.164 246.742,228.827 248.954,229.685 252.473 C 231.165 258.537,233.298 266.158,233.602 266.462 C 233.705 266.565,234.223 264.262,234.753 261.345 C 235.558 256.912,237.478 248.480,238.115 246.577 C 238.209 246.296,237.835 246.929,237.283 247.985 C 236.349 249.772,235.094 253.226,234.399 255.918 L 234.103 257.070 233.245 254.066 C 232.083 249.997,230.530 247.164,228.305 245.058 L 227.511 244.306 227.511 245.285 M189.635 277.341 C 188.784 277.654,188.356 278.281,188.356 279.215 C 188.356 279.823,188.518 280.290,188.804 280.507 C 189.185 280.795,189.204 280.792,188.932 280.487 C 188.149 279.609,188.534 278.193,189.699 277.664 C 190.667 277.225,190.619 276.979,189.635 277.341 M123.502 278.217 C 123.577 278.339,123.895 278.439,124.209 278.439 C 124.523 278.439,125.234 278.671,125.789 278.954 C 126.794 279.466,126.796 279.466,126.288 278.957 C 125.788 278.457,123.230 277.778,123.502 278.217 M196.354 280.195 C 196.552 280.720,196.763 280.893,197.095 280.806 C 197.421 280.721,197.636 280.885,197.814 281.353 C 198.029 281.920,198.592 282.307,198.592 281.888 C 198.592 281.663,196.493 279.463,196.279 279.463 C 196.168 279.463,196.202 279.792,196.354 280.195 " stroke="none" fill="#b9b8b8" fill-rule="evenodd"></path><path id="path2" d="M191.171 50.175 C 180.074 50.877,162.106 53.938,163.122 54.954 C 163.186 55.018,163.013 55.593,162.738 56.234 C 162.103 57.716,162.076 57.702,164.462 57.096 C 169.460 55.827,177.837 54.295,182.853 53.733 C 184.120 53.592,185.617 53.420,186.180 53.352 C 192.700 52.567,206.719 52.577,214.075 53.374 C 229.674 55.062,245.448 59.075,257.326 64.375 C 257.748 64.564,259.303 65.252,260.781 65.905 C 263.252 66.998,271.575 71.206,272.169 71.665 C 272.310 71.773,273.014 72.190,273.734 72.591 C 276.347 74.047,283.658 78.761,286.083 80.554 C 296.402 88.186,305.823 96.971,312.923 105.582 C 313.380 106.136,313.907 106.763,314.094 106.974 C 314.280 107.185,314.770 107.818,315.182 108.381 C 315.594 108.944,316.056 109.520,316.208 109.661 C 317.352 110.717,324.138 120.767,326.402 124.760 C 326.562 125.042,327.005 125.757,327.387 126.350 C 328.273 127.726,332.763 136.488,333.597 138.470 C 333.945 139.298,334.503 140.582,334.836 141.325 C 335.169 142.067,336.039 144.229,336.769 146.129 C 337.499 148.029,338.197 149.814,338.320 150.096 C 338.580 150.695,340.946 158.068,341.358 159.565 C 342.115 162.313,342.740 164.445,342.836 164.605 C 343.046 164.954,345.234 163.946,345.234 163.500 C 345.234 162.878,342.619 153.904,341.521 150.760 C 325.941 106.122,290.911 71.892,245.681 57.110 C 241.719 55.815,234.575 53.856,232.118 53.391 C 231.766 53.324,230.672 53.098,229.687 52.888 C 228.701 52.678,227.550 52.451,227.127 52.384 C 226.705 52.317,225.669 52.140,224.824 51.990 C 223.980 51.840,222.770 51.649,222.137 51.564 C 221.504 51.479,220.697 51.366,220.345 51.312 C 219.075 51.116,217.608 50.948,214.843 50.680 C 213.295 50.529,211.510 50.356,210.877 50.294 C 208.260 50.040,194.615 49.957,191.171 50.175 M160.461 216.037 C 159.827 216.170,158.581 216.227,157.692 216.165 L 156.074 216.051 155.203 217.239 C 154.682 217.949,154.328 218.735,154.322 219.194 C 154.317 219.616,154.143 220.595,153.935 221.369 C 153.727 222.143,153.556 223.618,153.554 224.647 C 153.552 225.712,153.450 226.455,153.317 226.373 C 153.188 226.294,153.031 226.373,152.968 226.550 C 152.762 227.127,152.522 226.592,152.298 225.054 C 152.113 223.784,152.073 223.702,152.047 224.538 C 152.000 226.037,152.526 227.475,153.330 228.048 C 153.803 228.385,154.099 228.876,154.207 229.505 C 154.990 234.037,157.007 235.883,160.932 235.658 C 164.071 235.479,165.497 234.025,166.211 230.276 C 166.455 228.997,166.724 228.353,167.198 227.914 C 168.006 227.165,168.540 224.623,168.116 223.538 C 167.952 223.119,167.915 223.164,167.897 223.800 C 167.825 226.373,167.202 226.237,167.023 223.608 C 166.689 218.730,166.427 217.818,165.021 216.635 C 164.346 216.067,164.020 215.965,163.224 216.072 C 162.690 216.143,162.252 216.098,162.252 215.971 C 162.252 215.701,162.020 215.709,160.461 216.037 M230.446 221.456 C 228.862 222.177,226.553 225.218,226.237 226.999 L 226.079 227.895 225.654 227.127 L 225.228 226.360 225.218 227.460 C 225.207 228.684,225.801 230.070,226.337 230.070 C 226.558 230.070,226.748 230.516,226.858 231.286 C 227.104 233.021,227.793 235.506,228.152 235.956 C 228.575 236.485,228.463 238.218,227.943 239.207 C 227.647 239.768,227.511 240.642,227.511 241.984 L 227.511 243.943 228.703 245.260 C 231.244 248.068,232.452 250.400,233.502 254.531 C 234.056 256.709,234.092 256.773,234.282 255.918 C 234.726 253.921,236.256 249.642,237.189 247.785 C 238.549 245.080,238.882 241.200,237.858 239.984 C 237.035 239.005,236.985 236.683,237.757 235.172 C 238.043 234.611,238.461 233.320,238.685 232.303 C 238.909 231.286,239.318 230.206,239.593 229.904 C 239.868 229.601,240.150 228.852,240.221 228.240 C 240.301 227.533,240.263 227.247,240.115 227.456 C 239.949 227.690,239.788 227.472,239.558 226.704 C 238.590 223.476,233.037 220.277,230.446 221.456 M165.323 222.670 C 165.573 222.813,165.232 222.892,164.347 222.897 L 162.987 222.905 163.068 223.736 C 163.141 224.494,163.239 224.581,164.171 224.713 L 165.195 224.858 164.509 225.148 C 163.788 225.452,162.513 225.231,161.859 224.688 C 161.417 224.321,161.660 223.691,162.352 223.411 C 162.879 223.198,162.877 223.193,162.295 223.177 C 161.466 223.154,161.728 222.561,162.657 222.357 C 163.471 222.178,164.716 222.324,165.323 222.670 M158.776 222.548 C 159.704 222.904,159.060 223.131,157.258 223.084 C 155.649 223.041,155.406 222.980,155.771 222.713 C 156.226 222.380,158.074 222.279,158.776 222.548 M159.172 223.912 C 159.556 224.629,159.527 224.685,158.549 225.093 C 157.372 225.585,156.254 225.562,155.821 225.038 C 155.504 224.652,155.541 224.629,156.196 224.792 C 157.256 225.056,157.901 224.771,157.901 224.039 C 157.901 223.264,158.778 223.176,159.172 223.912 M230.701 226.250 C 231.510 226.553,232.118 226.937,232.118 227.146 C 232.118 227.622,232.105 227.620,230.326 226.871 C 229.490 226.520,228.601 226.224,228.351 226.214 C 227.952 226.198,227.959 226.168,228.407 225.976 C 229.133 225.664,229.134 225.664,230.701 226.250 M236.980 226.750 C 234.394 227.642,234.620 227.608,234.722 227.086 C 234.833 226.518,236.300 226.016,237.876 226.008 L 239.155 226.001 236.980 226.750 M231.502 228.062 C 231.756 228.474,230.885 229.047,230.005 229.047 C 229.192 229.047,228.279 228.645,228.279 228.287 C 228.279 227.831,231.232 227.624,231.502 228.062 M238.095 228.040 C 238.549 228.050,238.550 228.072,238.119 228.549 C 237.611 229.110,236.237 229.215,235.382 228.757 C 234.544 228.309,235.508 227.681,236.724 227.881 C 237.217 227.963,237.834 228.034,238.095 228.040 M162.124 230.323 C 163.694 230.931,161.028 231.917,159.329 231.357 C 158.072 230.942,157.978 230.637,158.971 230.191 C 159.867 229.789,160.853 229.830,162.124 230.323 M235.701 234.489 C 235.701 235.537,232.694 235.985,231.432 235.125 C 230.242 234.315,230.286 234.293,233.141 234.293 C 234.549 234.293,235.701 234.381,235.701 234.489 M55.854 235.931 C 54.537 236.408,54.542 236.120,55.776 240.464 C 58.015 248.348,61.707 258.159,64.798 264.436 C 65.615 266.095,66.283 267.510,66.283 267.579 C 66.283 267.910,70.199 274.876,72.245 278.183 C 88.363 304.242,112.857 325.567,139.859 337.048 C 140.141 337.168,140.774 337.438,141.267 337.649 C 170.703 350.261,203.629 352.973,235.276 345.392 C 237.012 344.976,237.010 344.977,237.605 343.363 C 238.193 341.764,238.228 341.776,235.283 342.520 C 233.894 342.871,232.443 343.214,232.058 343.282 C 231.673 343.351,231.268 343.463,231.157 343.531 C 231.046 343.600,230.492 343.725,229.927 343.809 C 229.361 343.894,228.615 344.029,228.269 344.109 C 226.986 344.408,224.013 344.934,222.649 345.104 C 221.875 345.201,221.011 345.315,220.729 345.357 C 220.448 345.400,219.584 345.517,218.810 345.617 C 218.036 345.718,217.115 345.841,216.763 345.890 C 210.446 346.774,199.837 347.122,192.322 346.692 C 188.801 346.491,188.099 346.437,185.285 346.154 C 182.022 345.827,181.223 345.734,179.399 345.474 C 178.343 345.323,177.076 345.147,176.583 345.082 C 176.091 345.017,175.515 344.912,175.304 344.849 C 175.093 344.786,174.459 344.663,173.896 344.577 C 172.101 344.301,167.087 343.212,163.916 342.409 C 162.226 341.981,160.565 341.572,160.223 341.500 C 159.881 341.427,159.507 341.310,159.392 341.239 C 159.277 341.168,158.981 341.066,158.734 341.013 C 158.045 340.865,149.652 338.105,149.072 337.836 C 148.791 337.706,147.466 337.174,146.129 336.654 C 144.792 336.135,143.101 335.434,142.371 335.097 C 141.640 334.761,140.992 334.485,140.930 334.485 C 140.868 334.485,140.372 334.291,139.827 334.054 C 139.281 333.816,138.749 333.644,138.644 333.670 C 138.538 333.696,138.452 333.620,138.452 333.502 C 138.452 333.384,137.271 332.781,135.829 332.163 C 134.386 331.544,133.053 330.892,132.868 330.714 C 132.682 330.537,132.250 330.321,131.908 330.235 C 131.566 330.149,131.286 329.969,131.286 329.836 C 131.286 329.702,131.171 329.663,131.030 329.750 C 130.889 329.837,130.774 329.767,130.774 329.595 C 130.774 329.422,130.707 329.348,130.625 329.430 C 130.544 329.512,130.067 329.301,129.566 328.961 C 129.065 328.621,128.499 328.343,128.307 328.343 C 128.116 328.343,127.959 328.237,127.959 328.107 C 127.959 327.977,127.556 327.738,127.063 327.575 C 126.571 327.413,126.168 327.181,126.168 327.061 C 126.168 326.940,125.914 326.761,125.604 326.663 C 125.294 326.565,124.882 326.326,124.690 326.134 C 124.497 325.941,124.175 325.784,123.974 325.784 C 123.773 325.784,123.608 325.682,123.608 325.558 C 123.608 325.433,123.402 325.278,123.149 325.212 C 122.598 325.067,117.375 321.676,117.253 321.383 C 117.206 321.270,117.005 321.177,116.805 321.177 C 116.606 321.177,116.443 321.062,116.443 320.921 C 116.443 320.781,116.292 320.665,116.107 320.665 C 115.923 320.665,115.548 320.458,115.275 320.205 C 115.003 319.951,114.405 319.523,113.948 319.254 C 113.490 318.984,113.116 318.670,113.116 318.557 C 113.116 318.443,112.828 318.240,112.476 318.106 C 112.124 317.972,111.836 317.745,111.836 317.601 C 111.836 317.456,111.660 317.338,111.444 317.338 C 111.229 317.338,110.986 317.166,110.905 316.955 C 110.824 316.743,110.610 316.571,110.429 316.571 C 110.248 316.571,110.033 316.398,109.952 316.187 C 109.871 315.976,109.638 315.803,109.434 315.803 C 109.231 315.803,109.025 315.717,108.978 315.611 C 108.932 315.505,108.260 314.901,107.486 314.269 C 106.711 313.636,105.951 313.002,105.796 312.861 C 105.641 312.720,104.950 312.143,104.261 311.580 C 99.277 307.508,89.988 298.078,85.988 293.030 C 85.496 292.408,84.799 291.549,84.440 291.119 C 73.486 278.027,62.623 256.457,57.947 238.516 C 57.113 235.314,57.214 235.439,55.854 235.931 M281.429 276.233 C 281.333 276.484,281.264 276.997,281.277 277.372 C 281.299 278.009,281.317 277.997,281.546 277.200 C 281.813 276.275,281.716 275.485,281.429 276.233 M116.461 276.647 C 116.449 276.999,116.268 277.617,116.057 278.020 C 115.631 278.838,115.546 279.290,115.931 278.695 C 116.123 278.397,116.187 278.483,116.215 279.079 C 116.235 279.501,116.350 279.098,116.471 278.183 C 116.591 277.268,116.643 276.404,116.586 276.264 C 116.530 276.123,116.473 276.296,116.461 276.647 M116.955 277.226 C 116.955 277.639,117.126 277.912,117.437 277.994 C 117.813 278.092,117.912 277.989,117.885 277.533 C 117.866 277.210,117.803 276.993,117.746 277.051 C 117.688 277.108,117.487 277.027,117.298 276.870 C 117.026 276.644,116.955 276.719,116.955 277.226 M189.415 277.943 C 188.816 278.307,188.616 278.611,188.628 279.139 L 188.644 279.846 188.916 279.207 L 189.188 278.567 189.419 279.400 C 189.578 279.972,189.990 280.446,190.731 280.910 C 191.325 281.282,191.849 281.684,191.896 281.804 C 192.023 282.129,192.962 282.067,192.962 281.734 C 192.962 281.536,193.081 281.546,193.346 281.766 C 193.557 281.941,193.730 282.229,193.730 282.406 C 193.730 282.582,193.924 282.885,194.162 283.078 C 194.546 283.390,194.571 283.373,194.393 282.917 C 194.283 282.636,194.139 281.887,194.073 281.254 C 193.706 277.701,191.910 276.425,189.415 277.943 M194.772 278.104 C 194.762 278.412,194.869 278.736,195.010 278.823 C 195.312 279.010,195.312 278.759,195.010 278.055 C 194.798 277.562,194.789 277.563,194.772 278.104 M122.265 278.453 C 122.441 278.642,122.585 278.947,122.585 279.130 C 122.585 279.313,122.441 279.434,122.265 279.399 C 122.071 279.360,121.933 279.636,121.915 280.102 C 121.856 281.653,121.818 281.797,121.522 281.613 C 121.346 281.505,121.295 281.543,121.396 281.706 C 121.489 281.857,121.397 282.149,121.192 282.355 C 120.717 282.829,120.970 283.106,121.580 282.779 C 121.835 282.643,122.655 282.468,123.402 282.391 C 125.722 282.151,126.942 281.527,126.877 280.614 C 126.788 279.381,125.952 278.871,123.538 278.578 C 123.006 278.513,122.430 278.381,122.258 278.284 C 122.022 278.152,122.024 278.193,122.265 278.453 M280.089 278.461 C 279.994 278.614,280.045 278.868,280.201 279.024 C 280.411 279.233,280.486 279.159,280.486 278.746 C 280.486 278.128,280.353 278.033,280.089 278.461 M281.589 279.591 C 281.591 280.435,281.638 280.750,281.695 280.290 C 281.752 279.830,281.751 279.139,281.693 278.754 C 281.634 278.370,281.588 278.746,281.589 279.591 M273.734 279.258 C 271.933 279.809,270.036 282.150,270.784 282.898 C 271.253 283.367,275.368 283.314,275.368 282.839 C 275.368 282.453,275.494 282.359,275.876 282.458 C 276.757 282.689,277.222 282.372,276.858 281.788 C 276.686 281.513,276.466 281.336,276.369 281.396 C 276.052 281.592,275.527 280.716,275.382 279.748 L 275.240 278.797 273.734 279.258 M118.088 281.157 C 118.185 282.820,118.833 284.189,119.415 283.965 C 119.601 283.894,119.821 283.946,119.905 284.080 C 119.988 284.215,120.193 284.323,120.361 284.321 C 120.555 284.319,120.535 284.235,120.304 284.088 C 120.105 283.962,119.793 283.532,119.611 283.132 L 119.279 282.406 119.414 283.173 L 119.549 283.941 119.034 283.354 C 118.750 283.032,118.447 282.225,118.360 281.563 C 118.107 279.639,117.988 279.462,118.088 281.157 M195.842 280.614 C 195.845 281.177,195.897 281.377,195.958 281.059 C 196.020 280.741,196.017 280.280,195.953 280.035 C 195.889 279.791,195.839 280.051,195.842 280.614 M199.398 280.908 C 199.015 281.831,198.870 284.476,199.178 284.902 C 199.340 285.126,199.367 285.092,199.271 284.790 C 199.137 284.371,200.345 283.856,201.024 284.042 C 201.164 284.080,201.194 284.026,201.090 283.922 C 200.986 283.818,201.544 283.472,202.329 283.152 C 204.091 282.436,204.049 282.481,203.692 281.699 C 203.050 280.290,199.894 279.708,199.398 280.908 M278.695 281.041 C 278.695 281.973,278.807 281.939,279.048 280.934 C 279.148 280.516,279.110 280.230,278.956 280.230 C 278.812 280.230,278.695 280.595,278.695 281.041 M120.285 280.791 C 120.293 281.434,120.785 281.963,120.789 281.333 C 120.792 281.025,120.678 280.701,120.537 280.614 C 120.397 280.527,120.283 280.607,120.285 280.791 M196.660 281.318 C 196.714 281.494,196.837 281.983,196.933 282.406 L 197.108 283.173 197.420 282.278 C 197.591 281.785,197.688 281.296,197.635 281.190 C 197.469 280.860,196.555 280.980,196.660 281.318 M276.903 281.379 C 276.903 281.471,277.089 281.732,277.315 281.958 C 277.693 282.336,277.719 282.331,277.635 281.897 C 277.550 281.460,276.903 281.002,276.903 281.379 M198.104 285.051 C 198.260 285.496,198.484 285.861,198.602 285.861 C 199.062 285.861,198.986 285.451,198.416 284.859 L 197.822 284.241 198.104 285.051 " stroke="none" fill="#3c3c3c" fill-rule="evenodd"></path><path id="path3" d="M228.279 245.042 C 228.756 245.534,229.205 245.937,229.275 245.937 C 229.345 245.937,229.012 245.534,228.535 245.042 C 228.057 244.549,227.609 244.146,227.539 244.146 C 227.468 244.146,227.801 244.549,228.279 245.042 M190.567 277.287 C 190.512 277.433,190.944 277.546,191.568 277.549 C 192.833 277.556,193.644 278.142,193.812 279.169 C 193.874 279.546,193.915 279.371,193.906 278.775 C 193.896 278.186,193.823 277.709,193.745 277.715 C 193.430 277.740,192.450 277.345,192.450 277.193 C 192.450 276.924,190.672 277.012,190.567 277.287 M126.060 278.918 C 125.886 279.199,126.625 279.858,126.856 279.627 C 126.947 279.537,126.880 279.463,126.707 279.463 C 126.534 279.463,126.460 279.355,126.541 279.224 C 126.622 279.093,126.579 278.919,126.445 278.836 C 126.312 278.754,126.139 278.790,126.060 278.918 M197.123 280.123 C 197.369 280.416,197.504 280.721,197.424 280.801 C 197.344 280.881,197.394 281.018,197.534 281.105 C 198.134 281.475,198.005 280.764,197.371 280.204 C 196.850 279.744,196.788 279.724,197.123 280.123 M197.761 346.959 C 198.781 347.008,200.451 347.008,201.472 346.959 C 202.492 346.910,201.657 346.871,199.616 346.871 C 197.575 346.871,196.740 346.910,197.761 346.959 " stroke="none" fill="#494342" fill-rule="evenodd"></path><path id="path4" d="M159.377 211.569 C 159.696 211.631,159.890 211.788,159.810 211.918 C 159.729 212.049,159.833 212.156,160.041 212.156 C 160.249 212.156,160.630 212.225,160.888 212.308 C 161.240 212.423,161.270 212.399,161.008 212.211 C 160.713 212.001,160.713 211.938,161.008 211.806 C 161.199 211.719,161.083 211.718,160.749 211.802 C 160.340 211.905,160.198 211.862,160.316 211.672 C 160.432 211.484,160.205 211.400,159.644 211.423 C 159.036 211.448,158.961 211.490,159.377 211.569 M163.497 212.427 C 163.970 212.715,164.412 212.896,164.480 212.829 C 164.609 212.700,163.194 211.899,162.841 211.901 C 162.728 211.902,163.023 212.138,163.497 212.427 M159.691 212.923 C 160.605 213.184,161.393 213.356,161.443 213.306 C 161.571 213.178,158.921 212.408,158.431 212.430 C 158.210 212.440,158.777 212.662,159.691 212.923 M154.505 213.597 C 154.429 213.719,155.018 213.823,155.814 213.827 C 156.610 213.831,157.780 213.925,158.413 214.035 C 159.382 214.204,159.485 214.186,159.058 213.918 C 158.456 213.541,154.704 213.276,154.505 213.597 M235.496 214.353 C 236.739 214.736,237.424 215.270,236.405 215.062 C 236.073 214.994,236.263 215.179,236.852 215.499 C 238.285 216.276,238.968 216.949,239.820 218.426 C 240.763 220.060,240.766 219.759,239.829 217.691 C 238.867 215.571,236.661 213.911,234.877 213.965 C 234.521 213.976,234.762 214.127,235.496 214.353 M154.418 214.966 C 154.121 215.086,153.799 215.389,153.703 215.639 C 153.541 216.062,153.566 216.061,154.053 215.620 C 154.341 215.360,155.008 215.063,155.535 214.960 C 156.403 214.792,156.421 214.773,155.726 214.761 C 155.304 214.754,154.715 214.846,154.418 214.966 M162.155 215.855 C 162.246 216.092,162.585 216.157,163.252 216.068 C 164.304 215.927,165.886 216.994,166.230 218.077 C 166.320 218.361,166.449 218.538,166.516 218.470 C 166.694 218.292,165.689 216.404,165.198 215.998 C 164.615 215.514,161.976 215.390,162.155 215.855 M166.802 216.234 C 167.039 216.647,167.268 216.950,167.311 216.907 C 167.450 216.769,166.784 215.483,166.574 215.483 C 166.462 215.483,166.565 215.821,166.802 216.234 M235.279 215.746 C 236.345 216.065,237.672 217.042,238.046 217.782 C 238.616 218.909,238.601 218.951,237.862 218.298 C 237.463 217.946,237.722 218.349,238.436 219.194 C 239.868 220.887,240.667 222.274,240.430 222.656 C 240.346 222.793,240.411 222.905,240.575 222.905 C 240.740 222.905,240.805 223.083,240.721 223.302 C 240.622 223.559,240.672 223.635,240.862 223.518 C 241.062 223.394,241.109 223.513,241.011 223.889 C 240.923 224.227,240.967 224.379,241.126 224.281 C 241.291 224.179,241.319 224.331,241.203 224.696 C 241.082 225.076,241.112 225.215,241.292 225.104 C 241.469 224.995,241.530 225.209,241.466 225.715 C 241.410 226.154,241.471 226.431,241.605 226.348 C 241.743 226.263,241.864 227.096,241.893 228.328 L 241.943 230.454 242.033 228.696 C 242.083 227.726,241.946 226.081,241.727 225.024 C 241.510 223.972,241.407 222.989,241.499 222.840 C 241.604 222.670,241.541 222.647,241.330 222.777 C 241.069 222.938,241.028 222.791,241.146 222.113 C 241.228 221.633,241.235 221.390,241.161 221.571 C 241.086 221.753,240.580 221.015,240.036 219.932 C 238.606 217.086,236.772 215.456,235.061 215.511 C 234.698 215.522,234.761 215.591,235.279 215.746 M155.560 216.315 C 154.644 217.062,153.760 219.058,154.025 219.781 C 154.269 220.449,154.279 220.438,154.298 219.480 C 154.313 218.775,154.578 218.126,155.214 217.241 C 156.151 215.936,156.207 215.787,155.560 216.315 M166.748 220.090 C 166.812 220.864,166.932 222.447,167.016 223.608 C 167.099 224.770,167.253 225.720,167.359 225.720 C 167.588 225.720,167.466 223.727,167.086 221.241 C 166.707 218.761,166.613 218.442,166.748 220.090 M225.489 221.143 C 224.758 222.426,224.105 223.836,224.037 224.278 C 223.920 225.045,223.927 225.052,224.191 224.440 C 224.343 224.088,224.916 223.109,225.465 222.265 C 226.013 221.420,226.642 220.298,226.862 219.770 C 227.591 218.022,226.838 218.774,225.489 221.143 M237.500 219.881 C 237.490 220.089,239.062 222.649,239.199 222.649 C 239.341 222.649,238.359 220.806,237.904 220.218 C 237.686 219.936,237.505 219.784,237.500 219.881 M231.606 220.857 C 231.301 221.054,231.354 221.107,231.862 221.113 C 232.214 221.117,232.790 221.183,233.141 221.259 C 233.607 221.359,233.546 221.289,232.920 220.999 C 231.911 220.533,232.079 220.551,231.606 220.857 M225.839 222.149 C 224.698 223.703,224.804 224.128,225.966 222.661 C 226.417 222.091,226.705 221.625,226.606 221.625 C 226.506 221.625,226.568 221.452,226.743 221.241 C 226.919 221.030,227.000 220.857,226.925 220.857 C 226.849 220.857,226.360 221.439,225.839 222.149 M235.445 220.955 C 235.445 221.018,235.934 221.448,236.532 221.909 C 237.537 222.684,237.571 222.694,236.980 222.035 C 236.374 221.359,235.445 220.706,235.445 220.955 M229.177 222.135 C 228.923 222.415,228.233 222.927,227.644 223.272 C 225.680 224.423,224.795 225.656,224.908 227.080 C 225.027 228.573,225.162 228.536,225.233 226.992 C 225.276 226.071,225.464 225.660,226.195 224.888 C 227.108 223.924,227.879 223.540,227.223 224.376 C 226.903 224.783,226.913 224.792,227.325 224.468 C 227.575 224.272,227.732 224.064,227.675 224.006 C 227.617 223.949,228.103 223.392,228.756 222.769 C 229.409 222.146,229.874 221.634,229.790 221.631 C 229.706 221.628,229.430 221.854,229.177 222.135 M234.698 221.708 C 234.757 221.754,235.208 222.051,235.701 222.369 L 236.596 222.947 235.829 222.287 C 235.406 221.924,234.955 221.627,234.826 221.626 C 234.697 221.626,234.640 221.662,234.698 221.708 M152.296 222.673 C 152.283 222.898,152.092 223.442,151.872 223.882 C 151.304 225.020,152.015 227.644,153.053 228.240 C 153.786 228.660,154.779 232.310,154.418 233.253 C 153.745 235.005,155.407 237.436,158.597 239.370 L 160.189 240.335 161.668 239.262 C 165.034 236.822,165.865 235.751,166.120 233.525 C 166.522 230.031,166.931 228.320,167.395 228.198 C 168.229 227.980,169.016 224.134,168.419 223.192 C 168.047 222.604,167.624 223.132,167.663 224.135 L 167.699 225.080 167.882 224.056 C 168.067 223.024,168.217 223.405,168.186 224.824 C 168.151 226.340,167.838 227.321,167.198 227.914 C 166.724 228.353,166.455 228.997,166.211 230.276 C 165.497 234.025,164.071 235.479,160.932 235.658 C 157.007 235.883,154.990 234.037,154.207 229.505 C 154.099 228.876,153.803 228.385,153.330 228.048 C 152.526 227.475,152.000 226.037,152.047 224.538 C 152.073 223.702,152.113 223.784,152.298 225.054 C 152.522 226.592,152.762 227.127,152.968 226.550 C 153.031 226.373,153.188 226.294,153.317 226.373 C 153.451 226.456,153.530 225.776,153.502 224.775 L 153.454 223.033 153.362 224.504 C 153.311 225.313,153.153 225.976,153.011 225.976 C 152.869 225.976,152.804 225.889,152.867 225.784 C 152.930 225.678,152.833 224.843,152.651 223.928 C 152.470 223.013,152.310 222.449,152.296 222.673 M161.911 222.563 C 161.576 222.898,161.749 223.161,162.316 223.177 C 162.886 223.193,162.887 223.195,162.352 223.411 C 161.660 223.691,161.417 224.321,161.859 224.688 C 162.513 225.231,163.788 225.452,164.509 225.148 L 165.195 224.858 164.171 224.713 C 163.239 224.581,163.141 224.494,163.068 223.736 C 163.004 223.078,162.871 222.904,162.428 222.901 C 161.973 222.898,161.940 222.851,162.252 222.649 C 162.463 222.512,162.511 222.399,162.359 222.397 C 162.206 222.395,162.005 222.470,161.911 222.563 M164.044 222.649 C 163.513 222.819,163.601 222.857,164.555 222.875 C 165.387 222.891,165.600 222.828,165.323 222.649 C 164.891 222.369,164.916 222.369,164.044 222.649 M237.748 224.056 C 238.225 224.549,238.674 224.952,238.744 224.952 C 238.814 224.952,238.481 224.549,238.004 224.056 C 237.526 223.564,237.078 223.161,237.008 223.161 C 236.937 223.161,237.270 223.564,237.748 224.056 M157.901 224.039 C 157.901 224.771,157.256 225.056,156.196 224.792 C 155.541 224.629,155.504 224.652,155.821 225.038 C 156.183 225.476,158.053 225.661,157.788 225.232 C 157.709 225.104,157.847 225.052,158.093 225.116 C 158.877 225.320,159.553 224.623,159.204 223.972 C 158.785 223.188,157.901 223.233,157.901 224.039 M239.081 225.594 C 239.181 225.749,239.375 226.157,239.513 226.501 C 239.671 226.897,239.769 226.973,239.779 226.708 C 239.788 226.477,239.594 226.069,239.347 225.800 C 239.101 225.531,238.981 225.439,239.081 225.594 M228.407 225.976 C 227.959 226.168,227.952 226.198,228.351 226.214 C 228.601 226.224,229.490 226.520,230.326 226.871 C 232.105 227.620,232.118 227.622,232.118 227.146 C 232.118 226.937,231.510 226.553,230.701 226.250 C 229.134 225.664,229.133 225.664,228.407 225.976 M235.701 226.338 C 235.208 226.515,234.768 226.852,234.722 227.086 C 234.620 227.608,234.394 227.642,236.980 226.750 L 239.155 226.001 237.876 226.008 C 237.172 226.011,236.193 226.160,235.701 226.338 M240.213 226.663 C 240.124 226.918,239.985 227.300,239.904 227.511 C 239.773 227.852,239.786 227.852,240.028 227.511 C 240.250 227.196,240.305 227.243,240.329 227.767 C 240.354 228.286,240.400 228.238,240.572 227.511 C 240.795 226.572,240.494 225.859,240.213 226.663 M228.983 227.950 C 228.246 228.062,228.072 228.377,228.574 228.687 C 228.737 228.788,228.805 228.766,228.727 228.638 C 228.648 228.511,229.195 228.407,229.941 228.407 C 230.769 228.407,231.244 228.507,231.159 228.663 C 231.082 228.804,231.164 228.785,231.341 228.621 C 232.096 227.924,231.074 227.634,228.983 227.950 M235.342 228.095 C 234.963 228.376,234.929 228.503,235.190 228.663 C 235.426 228.809,235.462 228.770,235.314 228.531 C 235.156 228.275,235.224 228.240,235.595 228.390 C 237.152 229.020,237.604 229.048,238.106 228.546 C 238.596 228.057,238.596 228.048,238.112 228.039 C 237.841 228.033,237.217 227.963,236.724 227.881 C 236.146 227.786,235.656 227.862,235.342 228.095 M158.971 230.191 C 157.978 230.637,158.072 230.942,159.329 231.357 C 160.342 231.691,161.652 231.531,162.400 230.982 C 163.384 230.259,160.369 229.564,158.971 230.191 M241.496 233.284 C 241.278 235.913,241.629 237.748,242.350 237.748 C 242.536 237.748,242.521 237.557,242.303 237.172 C 242.121 236.849,241.919 235.306,241.843 233.653 L 241.709 230.710 241.496 233.284 M224.202 235.593 C 224.186 237.270,224.135 237.432,223.525 237.759 C 223.162 237.953,222.740 238.346,222.587 238.634 C 222.350 239.081,222.402 239.068,222.953 238.540 C 223.306 238.201,223.674 237.946,223.771 237.973 C 224.541 238.188,225.009 235.616,224.440 234.293 C 224.288 233.940,224.215 234.343,224.202 235.593 M230.584 234.421 C 230.598 235.440,233.581 235.977,234.869 235.192 C 236.143 234.415,235.909 234.293,233.141 234.293 C 231.734 234.293,230.583 234.351,230.584 234.421 M241.339 238.935 C 241.335 239.096,241.557 239.499,241.834 239.831 C 242.111 240.163,242.341 240.304,242.346 240.144 C 242.351 239.983,242.128 239.580,241.851 239.248 C 241.574 238.916,241.344 238.775,241.339 238.935 M245.150 239.817 C 245.139 239.875,245.095 240.106,245.051 240.328 C 245.007 240.551,245.118 240.734,245.298 240.734 C 245.477 240.734,245.602 240.583,245.575 240.400 C 245.526 240.072,245.188 239.608,245.150 239.817 M221.369 240.663 C 221.369 240.868,223.197 240.968,223.319 240.769 C 223.389 240.656,222.979 240.563,222.408 240.563 C 221.837 240.563,221.369 240.608,221.369 240.663 M227.315 242.099 C 227.315 242.591,227.367 242.793,227.432 242.546 C 227.496 242.300,227.496 241.897,227.432 241.651 C 227.367 241.404,227.315 241.606,227.315 242.099 M238.344 243.762 C 238.345 244.747,238.391 245.119,238.447 244.588 C 238.502 244.057,238.501 243.251,238.444 242.797 C 238.388 242.342,238.343 242.777,238.344 243.762 M227.328 245.298 C 227.330 246.001,227.380 246.259,227.439 245.870 C 227.498 245.481,227.496 244.905,227.435 244.590 C 227.375 244.275,227.327 244.594,227.328 245.298 M279.079 275.857 C 278.656 276.125,277.886 276.733,277.367 277.208 C 276.773 277.752,275.746 278.290,274.595 278.661 C 273.589 278.985,272.827 279.311,272.902 279.385 C 272.976 279.459,273.561 279.341,274.202 279.123 L 275.368 278.726 275.368 279.549 C 275.368 280.390,276.020 281.611,276.358 281.403 C 276.461 281.339,276.686 281.513,276.858 281.788 C 277.222 282.372,276.757 282.689,275.876 282.458 C 275.492 282.358,275.368 282.453,275.368 282.846 C 275.368 283.316,275.245 283.355,274.088 283.244 C 272.708 283.111,272.319 283.472,273.572 283.723 C 273.992 283.807,274.291 283.948,274.237 284.036 C 274.182 284.125,274.644 284.157,275.264 284.107 C 275.884 284.058,276.392 284.116,276.392 284.235 C 276.392 284.579,278.364 284.450,278.813 284.077 C 279.036 283.892,279.281 283.803,279.357 283.879 C 279.531 284.052,280.677 282.979,280.565 282.747 C 280.520 282.653,280.973 282.147,281.572 281.622 C 282.171 281.097,282.489 280.759,282.278 280.870 C 281.966 281.035,281.954 281.009,282.214 280.729 C 283.083 279.792,282.231 274.921,281.328 275.667 C 281.003 275.935,280.892 275.939,280.807 275.688 C 280.652 275.228,279.964 275.295,279.079 275.857 M117.332 275.891 C 117.241 276.038,117.311 276.333,117.488 276.546 C 118.049 277.221,118.018 278.145,117.440 277.994 C 117.056 277.894,116.956 277.669,117.000 277.009 C 117.068 276.004,116.849 275.693,116.360 276.098 C 115.997 276.400,115.916 276.978,115.870 279.591 L 115.844 281.126 117.532 282.894 C 119.790 285.260,121.590 285.299,124.120 283.036 L 125.016 282.235 123.540 282.377 C 122.729 282.456,121.852 282.634,121.591 282.774 C 120.972 283.105,120.713 282.833,121.192 282.355 C 121.397 282.149,121.489 281.857,121.396 281.706 C 121.295 281.543,121.346 281.505,121.522 281.613 C 121.818 281.797,121.856 281.653,121.915 280.102 C 121.933 279.636,122.071 279.360,122.265 279.399 C 122.441 279.434,122.585 279.313,122.585 279.130 C 122.585 278.947,122.441 278.652,122.265 278.474 C 122.007 278.214,122.089 278.205,122.684 278.430 C 123.091 278.584,123.482 278.651,123.553 278.580 C 123.624 278.509,123.464 278.381,123.197 278.296 C 122.931 278.211,122.425 278.015,122.073 277.861 C 121.721 277.706,121.376 277.571,121.305 277.561 C 121.235 277.550,120.774 277.233,120.280 276.856 C 118.893 275.796,117.643 275.387,117.332 275.891 M281.546 277.200 C 281.317 277.997,281.299 278.009,281.277 277.372 C 281.251 276.590,281.557 275.637,281.698 276.061 C 281.750 276.217,281.682 276.729,281.546 277.200 M116.513 278.071 C 116.382 279.400,116.303 279.654,116.196 279.079 C 116.074 278.420,116.429 276.037,116.621 276.228 C 116.658 276.266,116.610 277.095,116.513 278.071 M194.102 278.046 C 193.910 279.328,194.074 282.145,194.387 282.917 C 194.571 283.373,194.546 283.391,194.162 283.078 C 193.924 282.885,193.730 282.582,193.730 282.406 C 193.730 282.229,193.557 281.941,193.346 281.766 C 193.081 281.546,192.962 281.536,192.962 281.734 C 192.962 282.067,192.023 282.129,191.896 281.804 C 191.849 281.684,191.318 281.278,190.715 280.900 C 189.948 280.420,189.574 279.987,189.468 279.458 C 189.297 278.602,188.868 278.678,188.868 279.566 C 188.868 279.933,189.424 280.721,190.366 281.686 C 191.802 283.158,192.582 283.568,194.184 283.692 C 194.743 283.735,195.154 284.038,196.341 285.281 C 196.851 285.815,198.397 286.320,198.976 286.141 C 199.117 286.098,199.347 286.041,199.488 286.016 C 199.993 285.923,200.525 285.459,201.356 284.389 C 202.300 283.171,202.233 283.105,200.768 283.813 C 200.205 284.085,199.604 284.312,199.432 284.316 C 199.252 284.321,199.181 284.514,199.264 284.773 C 199.364 285.082,199.337 285.122,199.178 284.902 C 198.418 283.851,199.319 280.242,200.351 280.208 L 201.024 280.186 200.384 279.987 C 199.340 279.662,197.569 278.662,197.569 278.398 C 197.569 278.263,197.468 278.215,197.345 278.291 C 197.222 278.367,196.826 278.156,196.465 277.821 C 196.104 277.487,195.744 277.278,195.665 277.357 C 195.586 277.436,195.521 277.391,195.521 277.258 C 195.521 276.297,194.259 276.998,194.102 278.046 M279.813 278.149 C 279.690 278.238,279.432 278.618,279.239 278.993 C 279.045 279.368,278.685 279.728,278.437 279.793 C 278.108 279.879,278.020 280.089,278.111 280.566 C 278.219 281.130,278.162 281.201,277.694 281.078 C 276.915 280.875,276.825 280.588,277.306 279.854 C 277.539 279.498,277.641 279.207,277.533 279.207 C 277.425 279.207,277.540 278.981,277.790 278.705 C 278.040 278.429,278.317 278.212,278.405 278.223 C 278.895 278.285,279.219 278.154,279.091 277.946 C 279.010 277.816,279.147 277.668,279.395 277.617 C 279.885 277.517,280.175 277.886,279.813 278.149 M120.122 278.769 C 120.210 278.681,120.282 278.751,120.282 278.923 C 120.282 279.096,120.380 279.176,120.501 279.101 C 120.795 278.920,121.722 280.667,121.467 280.922 C 121.357 281.032,121.155 280.921,121.017 280.676 C 120.880 280.431,120.524 280.230,120.226 280.230 C 119.928 280.230,119.760 280.155,119.853 280.062 C 119.945 279.969,119.648 279.523,119.192 279.070 C 118.069 277.954,118.000 277.432,119.085 278.259 C 119.567 278.627,120.034 278.857,120.122 278.769 M195.248 278.774 C 195.257 278.888,195.150 278.910,195.010 278.823 C 194.869 278.736,194.762 278.412,194.772 278.104 C 194.790 277.546,195.190 278.110,195.248 278.774 M280.486 278.746 C 280.486 279.159,280.411 279.233,280.201 279.024 C 280.045 278.868,279.994 278.614,280.089 278.461 C 280.353 278.033,280.486 278.128,280.486 278.746 M281.695 280.290 C 281.638 280.750,281.591 280.435,281.589 279.591 C 281.588 278.746,281.634 278.370,281.693 278.754 C 281.751 279.139,281.752 279.830,281.695 280.290 M198.070 280.914 C 198.357 281.280,198.592 281.679,198.592 281.800 C 198.592 282.144,197.882 282.061,197.751 281.702 C 197.687 281.526,197.520 281.785,197.380 282.278 L 197.126 283.173 196.941 282.406 C 196.840 281.983,196.600 281.235,196.408 280.742 L 196.060 279.846 196.012 280.742 C 195.976 281.405,195.934 281.482,195.849 281.036 C 195.786 280.705,195.806 280.153,195.892 279.809 L 196.049 279.183 196.798 279.716 C 197.210 280.009,197.782 280.549,198.070 280.914 M118.360 281.563 C 118.447 282.225,118.750 283.032,119.034 283.354 L 119.549 283.941 119.414 283.173 L 119.279 282.406 119.611 283.132 C 119.793 283.532,120.105 283.962,120.304 284.088 C 120.535 284.235,120.555 284.319,120.361 284.321 C 120.193 284.323,119.988 284.215,119.905 284.080 C 119.821 283.946,119.601 283.894,119.415 283.965 C 118.833 284.189,118.185 282.820,118.088 281.157 C 117.988 279.462,118.107 279.639,118.360 281.563 M279.048 280.934 C 278.807 281.939,278.695 281.973,278.695 281.041 C 278.695 280.595,278.812 280.230,278.956 280.230 C 279.110 280.230,279.148 280.516,279.048 280.934 M120.789 281.333 C 120.786 281.789,120.739 281.822,120.537 281.510 C 120.212 281.006,120.212 280.413,120.537 280.614 C 120.678 280.701,120.792 281.025,120.789 281.333 M277.635 281.897 C 277.719 282.331,277.693 282.336,277.315 281.958 C 276.823 281.466,276.781 281.171,277.223 281.318 C 277.399 281.376,277.584 281.637,277.635 281.897 M198.914 285.669 C 198.708 286.080,198.374 285.825,198.104 285.051 L 197.822 284.241 198.416 284.859 C 198.743 285.199,198.967 285.563,198.914 285.669 " stroke="none" fill="#32312e" fill-rule="evenodd"></path></g></svg>